<?xml version="1.0" encoding="UTF-8" standalone="no"?>
<!-- Created with Inkscape (http://www.inkscape.org/) -->

<svg
   width="210mm"
   height="228mm"
   viewBox="0 0 210 228"
   version="1.1"
   id="svg1"
   inkscape:version="1.4.3 (0d15f75042, 2025-12-25)"
   sodipodi:docname="lattice_site.svg"
   xmlns:inkscape="http://www.inkscape.org/namespaces/inkscape"
   xmlns:sodipodi="http://sodipodi.sourceforge.net/DTD/sodipodi-0.dtd"
   xmlns:xlink="http://www.w3.org/1999/xlink"
   xmlns="http://www.w3.org/2000/svg"
   xmlns:svg="http://www.w3.org/2000/svg">
  <sodipodi:namedview
     id="namedview1"
     pagecolor="#ffffff"
     bordercolor="#000000"
     borderopacity="0.25"
     inkscape:showpageshadow="2"
     inkscape:pageopacity="0.0"
     inkscape:pagecheckerboard="0"
     inkscape:deskcolor="#d1d1d1"
     inkscape:document-units="mm"
     inkscape:zoom="0.71268238"
     inkscape:cx="365.52047"
     inkscape:cy="422.34803"
     inkscape:window-width="1920"
     inkscape:window-height="1011"
     inkscape:window-x="0"
     inkscape:window-y="0"
     inkscape:window-maximized="1"
     inkscape:current-layer="layer1" />
  <defs
     id="defs1">
    <linearGradient
       id="linearGradient9"
       inkscape:collect="always">
      <stop
         style="stop-color:#ffffff;stop-opacity:1;"
         offset="0.71838987"
         id="stop9" />
      <stop
         style="stop-color:#ffffff;stop-opacity:0;"
         offset="0.83441538"
         id="stop10" />
    </linearGradient>
    <linearGradient
       inkscape:collect="always"
       xlink:href="#linearGradient9"
       id="linearGradient10"
       x1="104.99997"
       y1="51.807556"
       x2="104.99997"
       y2="263.8075"
       gradientUnits="userSpaceOnUse"
       gradientTransform="translate(0,-304.50242)" />
  </defs>
  <g
     inkscape:label="Ebene 1"
     inkscape:groupmode="layer"
     id="layer1">
    <path
       id="path1"
       d="M 105.00924,211.1644 51.778248,149.63462"
       style="fill:none;stroke:#a02c2c;stroke-width:2;stroke-linecap:butt;stroke-linejoin:miter;stroke-miterlimit:10;stroke-dasharray:none;stroke-opacity:1" />
    <path
       id="path2"
       d="M 105.00924,17.021408 87.263965,78.546258"
       style="fill:none;stroke:#a02c2c;stroke-width:2;stroke-linecap:butt;stroke-linejoin:miter;stroke-miterlimit:10;stroke-dasharray:none;stroke-opacity:1" />
    <path
       id="path3"
       d="M 16.339356,148.71103 V 79.749399"
       style="fill:none;stroke:#858585;stroke-width:0.67053;stroke-linecap:butt;stroke-linejoin:miter;stroke-miterlimit:10;stroke-dasharray:none;stroke-opacity:1" />
    <path
       id="path4"
       d="m 105.00924,211.1644 17.7453,-61.52978"
       style="fill:none;stroke:#858585;stroke-width:0.67053;stroke-linecap:butt;stroke-linejoin:miter;stroke-miterlimit:10;stroke-dasharray:none;stroke-opacity:1" />
    <path
       id="path5"
       d="M 105.00924,211.1644 87.263965,149.63462"
       style="fill:none;stroke:#858585;stroke-width:0.67053;stroke-linecap:butt;stroke-linejoin:miter;stroke-miterlimit:10;stroke-dasharray:none;stroke-opacity:1" />
    <path
       id="path6"
       d="M 105.00924,211.1644 16.286437,149.63462"
       style="fill:none;stroke:#858585;stroke-width:0.67053;stroke-linecap:butt;stroke-linejoin:miter;stroke-miterlimit:10;stroke-dasharray:none;stroke-opacity:1" />
    <path
       id="path7"
       d="m 105.00924,211.1644 53.23223,-61.52978"
       style="fill:none;stroke:#858585;stroke-width:0.67053;stroke-linecap:butt;stroke-linejoin:miter;stroke-miterlimit:10;stroke-dasharray:none;stroke-opacity:1" />
    <path
       id="path8"
       d="m 105.00924,211.1644 88.72283,-61.52978"
       style="fill:none;stroke:#858585;stroke-width:0.67053;stroke-linecap:butt;stroke-linejoin:miter;stroke-miterlimit:10;stroke-dasharray:none;stroke-opacity:1" />
    <path
       id="path9"
       d="m 105.00924,17.021408 17.7453,61.52485"
       style="fill:none;stroke:#858585;stroke-width:0.67053;stroke-linecap:butt;stroke-linejoin:miter;stroke-miterlimit:10;stroke-dasharray:none;stroke-opacity:1" />
    <path
       id="path10"
       d="M 105.00924,17.021408 51.773337,78.546258"
       style="fill:none;stroke:#858585;stroke-width:0.67053;stroke-linecap:butt;stroke-linejoin:miter;stroke-miterlimit:10;stroke-dasharray:none;stroke-opacity:1" />
    <path
       id="path11"
       d="M 105.00924,17.021408 16.281493,78.546258"
       style="fill:none;stroke:#858585;stroke-width:0.67053;stroke-linecap:butt;stroke-linejoin:miter;stroke-miterlimit:10;stroke-dasharray:none;stroke-opacity:1" />
    <path
       id="path12"
       d="m 105.00924,17.021408 53.23716,61.52485"
       style="fill:none;stroke:#858585;stroke-width:0.67053;stroke-linecap:butt;stroke-linejoin:miter;stroke-miterlimit:10;stroke-dasharray:none;stroke-opacity:1" />
    <path
       id="path13"
       d="m 105.00924,17.021408 88.72774,61.52485"
       style="fill:none;stroke:#858585;stroke-width:0.67053;stroke-linecap:butt;stroke-linejoin:miter;stroke-miterlimit:10;stroke-dasharray:none;stroke-opacity:1" />
    <path
       id="path14"
       d="M 122.68806,149.38464 51.81644,80.158243"
       style="fill:none;stroke:#858585;stroke-width:0.67053;stroke-linecap:butt;stroke-linejoin:miter;stroke-miterlimit:10;stroke-dasharray:none;stroke-opacity:1" />
    <path
       id="path15"
       d="M 158.20698,149.41787 51.81644,79.176764"
       style="fill:none;stroke:#858585;stroke-width:0.67053;stroke-linecap:butt;stroke-linejoin:miter;stroke-miterlimit:10;stroke-dasharray:none;stroke-opacity:1" />
    <path
       id="path16"
       d="M 193.67911,148.71103 V 79.749399"
       style="fill:none;stroke:#858585;stroke-width:0.67053;stroke-linecap:butt;stroke-linejoin:miter;stroke-miterlimit:10;stroke-dasharray:none;stroke-opacity:1" />
    <path
       id="path17"
       d="M 193.67911,148.71103 158.21191,79.749399"
       style="fill:none;stroke:#858585;stroke-width:0.67053;stroke-linecap:butt;stroke-linejoin:miter;stroke-miterlimit:10;stroke-dasharray:none;stroke-opacity:1" />
    <path
       id="path18"
       d="M 193.67911,148.71103 122.74593,79.749399"
       style="fill:none;stroke:#858585;stroke-width:0.67053;stroke-linecap:butt;stroke-linejoin:miter;stroke-miterlimit:10;stroke-dasharray:none;stroke-opacity:1" />
    <path
       id="path19"
       d="m 158.21191,148.71103 35.4672,-68.961631"
       style="fill:none;stroke:#858585;stroke-width:0.67053;stroke-linecap:butt;stroke-linejoin:miter;stroke-miterlimit:10;stroke-dasharray:none;stroke-opacity:1" />
    <path
       id="path20"
       d="M 158.21191,148.71103 87.273805,79.749399"
       style="fill:none;stroke:#858585;stroke-width:0.67053;stroke-linecap:butt;stroke-linejoin:miter;stroke-miterlimit:10;stroke-dasharray:none;stroke-opacity:1" />
    <path
       id="path21"
       d="M 122.74593,148.71103 158.21191,79.749399"
       style="fill:none;stroke:#858585;stroke-width:0.67053;stroke-linecap:butt;stroke-linejoin:miter;stroke-miterlimit:10;stroke-dasharray:none;stroke-opacity:1" />
    <path
       id="path22"
       d="M 87.273805,148.71103 193.67911,79.749399"
       style="fill:none;stroke:#858585;stroke-width:0.67053;stroke-linecap:butt;stroke-linejoin:miter;stroke-miterlimit:10;stroke-dasharray:none;stroke-opacity:1" />
    <path
       id="path23"
       d="M 87.273805,148.71103 16.339356,79.749399"
       style="fill:none;stroke:#858585;stroke-width:0.67053;stroke-linecap:butt;stroke-linejoin:miter;stroke-miterlimit:10;stroke-dasharray:none;stroke-opacity:1" />
    <path
       id="path24"
       d="M 51.806592,148.71103 16.339356,79.749399"
       style="fill:none;stroke:#858585;stroke-width:0.67053;stroke-linecap:butt;stroke-linejoin:miter;stroke-miterlimit:10;stroke-dasharray:none;stroke-opacity:1" />
    <path
       id="path25"
       d="M 51.806592,148.71103 158.21191,79.749399"
       style="fill:none;stroke:#858585;stroke-width:0.67053;stroke-linecap:butt;stroke-linejoin:miter;stroke-miterlimit:10;stroke-dasharray:none;stroke-opacity:1" />
    <path
       id="path26"
       d="M 16.339356,148.71103 51.806592,79.749399"
       style="fill:none;stroke:#858585;stroke-width:0.67053;stroke-linecap:butt;stroke-linejoin:miter;stroke-miterlimit:10;stroke-dasharray:none;stroke-opacity:1" />
    <path
       id="path27"
       d="M 16.339356,148.71103 122.74593,79.749399"
       style="fill:none;stroke:#858585;stroke-width:0.67053;stroke-linecap:butt;stroke-linejoin:miter;stroke-miterlimit:10;stroke-dasharray:none;stroke-opacity:1" />
    <path
       id="path28"
       d="m 181.28818,149.55703 c 0,-6.89247 5.58468,-12.47834 12.47715,-12.47834 6.88877,0 12.47838,5.58587 12.47838,12.47834 0,6.88878 -5.58961,12.47344 -12.47838,12.47344 -6.89247,0 -12.47715,-5.58466 -12.47715,-12.47344 z"
       style="fill:#ffffff;fill-opacity:1;fill-rule:nonzero;stroke:#e6f7fd;stroke-width:1.04388;stroke-linecap:butt;stroke-linejoin:miter;stroke-miterlimit:10;stroke-dasharray:none;stroke-opacity:1" />
    <path
       id="path29"
       d="M 51.806592,148.71103 87.273805,79.749399"
       style="fill:none;stroke:#a02c2c;stroke-width:2;stroke-linecap:butt;stroke-linejoin:miter;stroke-miterlimit:10;stroke-dasharray:none;stroke-opacity:1" />
    <path
       id="path30"
       d="m 110.28605,78.584441 c 0,-6.892471 5.58465,-12.477139 12.47833,-12.477139 6.8888,0 12.47346,5.584668 12.47346,12.477139 0,6.888768 -5.58466,12.473428 -12.47346,12.473428 -6.89368,0 -12.47833,-5.58466 -12.47833,-12.473428 z"
       style="fill:#ffffff;fill-opacity:1;fill-rule:nonzero;stroke:#e6f7fd;stroke-width:1.04388;stroke-linecap:butt;stroke-linejoin:miter;stroke-miterlimit:10;stroke-dasharray:none;stroke-opacity:1" />
    <path
       id="path31"
       d="m 110.28605,78.584441 c 0,-6.892471 5.58465,-12.477139 12.47833,-12.477139 6.8888,0 12.47346,5.584668 12.47346,12.477139 0,6.888768 -5.58466,12.473428 -12.47346,12.473428 -6.89368,0 -12.47833,-5.58466 -12.47833,-12.473428 z"
       style="fill:none;stroke:#000000;stroke-width:1.04388;stroke-linecap:butt;stroke-linejoin:miter;stroke-miterlimit:10;stroke-dasharray:none;stroke-opacity:1" />
    <path
       id="path32"
       d="m 107.73202,80.888492 12.75787,12.757904 c 1.35092,1.350908 3.53061,1.350908 4.88149,0 1.35706,-1.357075 1.35706,-3.53675 0.002,-4.887658 L 112.62003,76.00577 c -1.35092,-1.355836 -3.53058,-1.355836 -4.88764,8.1e-4 -1.35093,1.350907 -1.35093,3.530591 0,4.88149 z"
       style="fill:#aaaaff;fill-opacity:1;fill-rule:nonzero;stroke:#001b7e;stroke-width:0.740039;stroke-linecap:round;stroke-linejoin:round;stroke-miterlimit:4;stroke-dasharray:none;stroke-opacity:1" />
    <path
       id="path33"
       d="m 108.4635,78.584441 c 0,-1.033198 0.83735,-1.87059 1.87055,-1.87059 1.03445,0 1.87185,0.837392 1.87185,1.87059 0,1.034423 -0.8374,1.871807 -1.87185,1.871807 -1.0332,0 -1.87055,-0.837384 -1.87055,-1.871807 z"
       style="fill:#000000;fill-opacity:1;fill-rule:nonzero;stroke:#000000;stroke-width:1.04388;stroke-linecap:butt;stroke-linejoin:miter;stroke-miterlimit:10;stroke-dasharray:none;stroke-opacity:1" />
    <path
       id="path34"
       d="m 120.18204,68.502496 12.75173,12.751736 c 1.35706,1.357076 3.53677,1.357076 4.88768,8.11e-4 1.35213,-1.352139 1.35213,-3.531823 0,-4.883962 L 125.06969,63.619336 c -1.35707,-1.357067 -3.53673,-1.357067 -4.88887,0 -1.35092,1.350915 -1.35092,3.530591 8.2e-4,4.88273 z"
       style="fill:#aaaaff;fill-opacity:1;fill-rule:nonzero;stroke:#001b7e;stroke-width:0.740039;stroke-linecap:round;stroke-linejoin:round;stroke-miterlimit:4;stroke-dasharray:none;stroke-opacity:1" />
    <path
       id="path35"
       d="m 120.88887,66.160262 c 0,-1.034423 0.83619,-1.871815 1.87551,-1.871815 1.02954,0 1.86691,0.837392 1.86691,1.871815 0,1.03319 -0.83737,1.870582 -1.86691,1.870582 -1.03932,0 -1.87551,-0.837392 -1.87551,-1.870582 z"
       style="fill:#000000;fill-opacity:1;fill-rule:nonzero;stroke:#000000;stroke-width:1.04388;stroke-linecap:butt;stroke-linejoin:miter;stroke-miterlimit:10;stroke-dasharray:none;stroke-opacity:1" />
    <path
       id="path36"
       d="m 133.31429,78.584441 c 0,-1.033198 0.83618,-1.87059 1.8706,-1.87059 1.03442,0 1.87179,0.837392 1.87179,1.87059 0,1.034423 -0.83737,1.871807 -1.87179,1.871807 -1.03442,0 -1.8706,-0.837384 -1.8706,-1.871807 z"
       style="fill:#000000;fill-opacity:1;fill-rule:nonzero;stroke:#000000;stroke-width:1.04388;stroke-linecap:butt;stroke-linejoin:miter;stroke-miterlimit:10;stroke-dasharray:none;stroke-opacity:1" />
    <path
       id="path37"
       d="m 120.88887,91.009845 c 0,-1.034422 0.83619,-1.870582 1.87551,-1.870582 1.02954,0 1.86691,0.83616 1.86691,1.870582 0,1.034422 -0.83737,1.871815 -1.86691,1.871815 -1.03932,0 -1.87551,-0.837393 -1.87551,-1.871815 z"
       style="fill:#000000;fill-opacity:1;fill-rule:nonzero;stroke:#000000;stroke-width:1.04388;stroke-linecap:butt;stroke-linejoin:miter;stroke-miterlimit:10;stroke-dasharray:none;stroke-opacity:1" />
    <path
       id="path38"
       d="M 135.18489,78.584441 122.76438,66.160262"
       style="fill:none;stroke:#000000;stroke-width:1.04388;stroke-linecap:butt;stroke-linejoin:miter;stroke-miterlimit:10;stroke-dasharray:none;stroke-opacity:1" />
    <path
       id="path39"
       d="M 122.76438,91.009845 110.33405,78.584441"
       style="fill:none;stroke:#000000;stroke-width:1.04388;stroke-linecap:butt;stroke-linejoin:miter;stroke-miterlimit:10;stroke-dasharray:none;stroke-opacity:1" />
    <path
       id="path40"
       d="m 74.780665,78.584441 c 0,-6.892471 5.584636,-12.477139 12.478339,-12.477139 6.893704,0 12.478364,5.584668 12.478364,12.477139 0,6.888768 -5.58466,12.473428 -12.478364,12.473428 -6.893703,0 -12.478339,-5.58466 -12.478339,-12.473428 z"
       style="fill:#ffffff;fill-opacity:1;fill-rule:nonzero;stroke:#e6f7fd;stroke-width:1.04388;stroke-linecap:butt;stroke-linejoin:miter;stroke-miterlimit:10;stroke-dasharray:none;stroke-opacity:1" />
    <path
       id="path41"
       d="m 74.780665,78.584441 c 0,-6.892471 5.584636,-12.477139 12.478339,-12.477139 6.893704,0 12.478364,5.584668 12.478364,12.477139 0,6.888768 -5.58466,12.473428 -12.478364,12.473428 -6.893703,0 -12.478339,-5.58466 -12.478339,-12.473428 z"
       style="fill:none;stroke:#000000;stroke-width:1.04603;stroke-linecap:butt;stroke-linejoin:miter;stroke-miterlimit:10;stroke-dasharray:none;stroke-opacity:1" />
    <path
       id="path42"
       d="M 89.856156,68.588695 77.104428,81.34044 c -1.357068,1.357067 -3.535503,1.358291 -4.887651,8.1e-4 -1.352139,-1.352139 -1.350915,-3.530591 8.11e-4,-4.88273 L 84.969316,63.701847 c 1.35706,-1.352139 3.535536,-1.353363 4.887683,-8.1e-4 1.352131,1.357067 1.350883,3.535519 -8.1e-4,4.887658 z"
       style="fill:#aaaaff;fill-opacity:1;fill-rule:nonzero;stroke:#001b7e;stroke-width:0.740039;stroke-linecap:round;stroke-linejoin:round;stroke-miterlimit:4;stroke-dasharray:none;stroke-opacity:1" />
    <path
       id="path43"
       d="M 102.25326,80.946371 89.495352,93.699348 c -1.350916,1.350915 -3.530575,1.350915 -4.881507,0 -1.357059,-1.352139 -1.357059,-3.531823 -8.1e-4,-4.887658 L 97.365898,76.058713 c 1.350915,-1.350907 3.530572,-1.350907 4.887632,8.1e-4 1.35092,1.350908 1.35092,3.530583 0,4.886427 z"
       style="fill:#aaaaff;fill-opacity:1;fill-rule:nonzero;stroke:#001b7e;stroke-width:0.740039;stroke-linecap:round;stroke-linejoin:round;stroke-miterlimit:4;stroke-dasharray:none;stroke-opacity:1" />
    <path
       id="path44"
       d="m 72.963034,78.584441 c 0,-1.033198 0.836136,-1.87059 1.870583,-1.87059 1.034414,0 1.871814,0.837392 1.871814,1.87059 0,1.034423 -0.8374,1.871807 -1.871814,1.871807 -1.034447,0 -1.870583,-0.837384 -1.870583,-1.871807 z"
       style="fill:#000000;fill-opacity:1;fill-rule:nonzero;stroke:#000000;stroke-width:1.04388;stroke-linecap:butt;stroke-linejoin:miter;stroke-miterlimit:10;stroke-dasharray:none;stroke-opacity:1" />
    <path
       id="path45"
       d="m 85.388454,66.160262 c 0,-1.034423 0.836128,-1.871815 1.87055,-1.871815 1.034447,0 1.871839,0.837392 1.871839,1.871815 0,1.03319 -0.837392,1.870582 -1.871839,1.870582 -1.034422,0 -1.87055,-0.837392 -1.87055,-1.870582 z"
       style="fill:#000000;fill-opacity:1;fill-rule:nonzero;stroke:#000000;stroke-width:1.04388;stroke-linecap:butt;stroke-linejoin:miter;stroke-miterlimit:10;stroke-dasharray:none;stroke-opacity:1" />
    <path
       id="path46"
       d="m 97.812602,78.584441 c 0,-1.033198 0.8374,-1.87059 1.871814,-1.87059 1.034444,0 1.871814,0.837392 1.871814,1.87059 0,1.034423 -0.83737,1.871807 -1.871814,1.871807 -1.034414,0 -1.871814,-0.837384 -1.871814,-1.871807 z"
       style="fill:#000000;fill-opacity:1;fill-rule:nonzero;stroke:#000000;stroke-width:1.04388;stroke-linecap:butt;stroke-linejoin:miter;stroke-miterlimit:10;stroke-dasharray:none;stroke-opacity:1" />
    <path
       id="path47"
       d="m 85.388454,91.009845 c 0,-1.034422 0.836128,-1.870582 1.87055,-1.870582 1.034447,0 1.871839,0.83616 1.871839,1.870582 0,1.034422 -0.837392,1.871815 -1.871839,1.871815 -1.034422,0 -1.87055,-0.837393 -1.87055,-1.871815 z"
       style="fill:#000000;fill-opacity:1;fill-rule:nonzero;stroke:#000000;stroke-width:1.04388;stroke-linecap:butt;stroke-linejoin:miter;stroke-miterlimit:10;stroke-dasharray:none;stroke-opacity:1" />
    <path
       id="path48"
       d="M 99.684416,78.584441 87.259004,91.009845"
       style="fill:none;stroke:#000000;stroke-width:1.04388;stroke-linecap:butt;stroke-linejoin:miter;stroke-miterlimit:10;stroke-dasharray:none;stroke-opacity:1" />
    <path
       id="path49"
       d="M 74.833617,78.584441 87.259004,66.160262"
       style="fill:none;stroke:#000000;stroke-width:1.04388;stroke-linecap:butt;stroke-linejoin:miter;stroke-miterlimit:10;stroke-dasharray:none;stroke-opacity:1" />
    <path
       id="path50"
       d="m 39.280197,78.584441 c 0,-6.892471 5.584676,-12.477139 12.478364,-12.477139 6.888791,0 12.478379,5.584668 12.478379,12.477139 0,6.888768 -5.589588,12.473428 -12.478379,12.473428 -6.893688,0 -12.478364,-5.58466 -12.478364,-12.473428 z"
       style="fill:#ffffff;fill-opacity:1;fill-rule:nonzero;stroke:#e6f7fd;stroke-width:1.04388;stroke-linecap:butt;stroke-linejoin:miter;stroke-miterlimit:10;stroke-dasharray:none;stroke-opacity:1" />
    <path
       id="path51"
       d="m 39.280197,78.584441 c 0,-6.892471 5.584676,-12.477139 12.478364,-12.477139 6.888791,0 12.478379,5.584668 12.478379,12.477139 0,6.888768 -5.589588,12.473428 -12.478379,12.473428 -6.893688,0 -12.478364,-5.58466 -12.478364,-12.473428 z"
       style="fill:none;stroke:#000000;stroke-width:1.04388;stroke-linecap:butt;stroke-linejoin:miter;stroke-miterlimit:10;stroke-dasharray:none;stroke-opacity:1" />
    <path
       id="path52"
       d="m 39.333141,82.159352 c -1.928454,0 -3.492407,-1.568873 -3.492407,-3.497335 0,-0.895272 0.332655,-1.71296 0.885431,-2.328691 L 49.122001,63.97073 c 0.713018,-0.735185 1.669865,-1.385387 2.785542,-1.385387 0.64901,0 1.261045,0.17855 1.779488,0.486428 0.370636,0.220405 0.645265,0.56769 0.981454,0.865711 L 66.57915,76.300079 c 0.529507,0.61573 0.84724,1.413715 0.84724,2.279426 0,1.934622 -1.563953,3.497344 -3.492407,3.497344 l -24.600842,0.08248"
       style="fill:#aaaaff;fill-opacity:1;fill-rule:nonzero;stroke:#001b7e;stroke-width:0.740039;stroke-linecap:round;stroke-linejoin:miter;stroke-miterlimit:4;stroke-dasharray:none;stroke-opacity:1" />
    <path
       id="path53"
       d="m 37.462566,78.584441 c 0,-1.033198 0.836161,-1.87059 1.865663,-1.87059 1.039334,0 1.876726,0.837392 1.876726,1.87059 0,1.034423 -0.837392,1.871807 -1.876726,1.871807 -1.029502,0 -1.865663,-0.837384 -1.865663,-1.871807 z"
       style="fill:#000000;fill-opacity:1;fill-rule:nonzero;stroke:#000000;stroke-width:1.04388;stroke-linecap:butt;stroke-linejoin:miter;stroke-miterlimit:10;stroke-dasharray:none;stroke-opacity:1" />
    <path
       id="path54"
       d="m 49.88305,66.160262 c 0,-1.034423 0.841064,-1.871815 1.875511,-1.871815 1.029502,0 1.871814,0.837392 1.871814,1.871815 0,1.03319 -0.842312,1.870582 -1.871814,1.870582 -1.034447,0 -1.875511,-0.837392 -1.875511,-1.870582 z"
       style="fill:#000000;fill-opacity:1;fill-rule:nonzero;stroke:#000000;stroke-width:1.04388;stroke-linecap:butt;stroke-linejoin:miter;stroke-miterlimit:10;stroke-dasharray:none;stroke-opacity:1" />
    <path
       id="path55"
       d="m 62.312134,78.584441 c 0,-1.033198 0.8374,-1.87059 1.871814,-1.87059 1.034447,0 1.870623,0.837392 1.870623,1.87059 0,1.034423 -0.836176,1.871807 -1.870623,1.871807 -1.034414,0 -1.871814,-0.837384 -1.871814,-1.871807 z"
       style="fill:#000000;fill-opacity:1;fill-rule:nonzero;stroke:#000000;stroke-width:1.04388;stroke-linecap:butt;stroke-linejoin:miter;stroke-miterlimit:10;stroke-dasharray:none;stroke-opacity:1" />
    <path
       id="path56"
       d="m 48.295713,91.067725 c 0,1.90999 1.543018,3.454239 3.452976,3.454239 1.90507,0 3.449336,-1.544249 3.449336,-3.454239 0,-1.905071 -1.544266,-3.45424 -3.449336,-3.45424 -1.909958,0 -3.452976,1.549169 -3.452976,3.45424 z"
       style="fill:#aaaaff;fill-opacity:1;fill-rule:nonzero;stroke:#001b7e;stroke-width:0.739647;stroke-linecap:round;stroke-linejoin:miter;stroke-miterlimit:4;stroke-dasharray:none;stroke-opacity:1" />
    <path
       id="path57"
       d="m 49.88305,91.009845 c 0,-1.034422 0.841064,-1.870582 1.875511,-1.870582 1.029502,0 1.871814,0.83616 1.871814,1.870582 0,1.034422 -0.842312,1.871815 -1.871814,1.871815 -1.034447,0 -1.875511,-0.837393 -1.875511,-1.871815 z"
       style="fill:#000000;fill-opacity:1;fill-rule:nonzero;stroke:#000000;stroke-width:1.04388;stroke-linecap:butt;stroke-linejoin:miter;stroke-miterlimit:10;stroke-dasharray:none;stroke-opacity:1" />
    <path
       id="path58"
       d="M 64.183948,78.584441 H 39.328229"
       style="fill:none;stroke:#000000;stroke-width:1.04388;stroke-linecap:butt;stroke-linejoin:miter;stroke-miterlimit:10;stroke-dasharray:none;stroke-opacity:1" />
    <path
       id="path59"
       d="M 39.328229,78.584441 51.758561,66.160262"
       style="fill:none;stroke:#000000;stroke-width:1.04388;stroke-linecap:butt;stroke-linejoin:miter;stroke-miterlimit:10;stroke-dasharray:none;stroke-opacity:1" />
    <path
       id="path60"
       d="M 64.183948,78.584441 51.758561,66.160262"
       style="fill:none;stroke:#000000;stroke-width:1.04388;stroke-linecap:butt;stroke-linejoin:miter;stroke-miterlimit:10;stroke-dasharray:none;stroke-opacity:1" />
    <path
       id="path61"
       d="m 145.78649,78.584441 c 0,-6.892471 5.5859,-12.477139 12.47837,-12.477139 6.88877,0 12.47838,5.584668 12.47838,12.477139 0,6.888768 -5.58961,12.473428 -12.47838,12.473428 -6.89247,0 -12.47837,-5.58466 -12.47837,-12.473428 z"
       style="fill:#ffffff;fill-opacity:1;fill-rule:nonzero;stroke:#e6f7fd;stroke-width:1.04388;stroke-linecap:butt;stroke-linejoin:miter;stroke-miterlimit:10;stroke-dasharray:none;stroke-opacity:1" />
    <path
       id="path62"
       d="m 145.78649,78.584441 c 0,-6.892471 5.5859,-12.477139 12.47837,-12.477139 6.88877,0 12.47838,5.584668 12.47838,12.477139 0,6.888768 -5.58961,12.473428 -12.47838,12.473428 -6.89247,0 -12.47837,-5.58466 -12.47837,-12.473428 z"
       style="fill:none;stroke:#000000;stroke-width:1.04388;stroke-linecap:butt;stroke-linejoin:miter;stroke-miterlimit:10;stroke-dasharray:none;stroke-opacity:1" />
    <path
       id="path63"
       d="m 145.83574,75.010739 c -1.92969,0 -3.49238,1.568881 -3.49238,3.497343 0,0.89404 0.33616,1.712968 0.88417,2.32869 l 12.3971,12.362605 c 0.71177,0.735185 1.67353,1.389083 2.78433,1.389083 0.65019,0 1.26099,-0.177327 1.78066,-0.490116 0.37439,-0.221662 0.64408,-0.562778 0.9815,-0.865712 L 173.08545,80.87002 c 0.52955,-0.615722 0.84724,-1.410019 0.84724,-2.280659 0,-1.933381 -1.56395,-3.497343 -3.49734,-3.497343 l -24.59961,-0.08126"
       style="fill:#aaaaff;fill-opacity:1;fill-rule:nonzero;stroke:#001b7e;stroke-width:0.740039;stroke-linecap:round;stroke-linejoin:miter;stroke-miterlimit:4;stroke-dasharray:none;stroke-opacity:1" />
    <path
       id="path64"
       d="m 143.96393,78.584441 c 0,-1.033198 0.84233,-1.87059 1.87181,-1.87059 1.03323,0 1.87555,0.837392 1.87555,1.87059 0,1.034423 -0.84232,1.871807 -1.87555,1.871807 -1.02948,0 -1.87181,-0.837384 -1.87181,-1.871807 z"
       style="fill:#000000;fill-opacity:1;fill-rule:nonzero;stroke:#000000;stroke-width:1.04388;stroke-linecap:butt;stroke-linejoin:miter;stroke-miterlimit:10;stroke-dasharray:none;stroke-opacity:1" />
    <path
       id="path65"
       d="m 154.80201,66.216909 c 0,1.905062 1.54423,3.45424 3.453,3.45424 1.90508,0 3.44931,-1.549178 3.44931,-3.45424 0,-1.908766 -1.54423,-3.453016 -3.44931,-3.453016 -1.90877,0 -3.453,1.54425 -3.453,3.453016 z"
       style="fill:#aaaaff;fill-opacity:1;fill-rule:nonzero;stroke:#001b7e;stroke-width:0.739647;stroke-linecap:round;stroke-linejoin:miter;stroke-miterlimit:4;stroke-dasharray:none;stroke-opacity:1" />
    <path
       id="path66"
       d="m 156.38935,66.160262 c 0,-1.034423 0.8374,-1.871815 1.87551,-1.871815 1.0295,0 1.86688,0.837392 1.86688,1.871815 0,1.03319 -0.83738,1.870582 -1.86688,1.870582 -1.03811,0 -1.87551,-0.837392 -1.87551,-1.870582 z"
       style="fill:#000000;fill-opacity:1;fill-rule:nonzero;stroke:#000000;stroke-width:1.04388;stroke-linecap:butt;stroke-linejoin:miter;stroke-miterlimit:10;stroke-dasharray:none;stroke-opacity:1" />
    <path
       id="path67"
       d="m 168.81969,78.584441 c 0,-1.033198 0.83614,-1.87059 1.86567,-1.87059 1.03933,0 1.87673,0.837392 1.87673,1.87059 0,1.034423 -0.8374,1.871807 -1.87673,1.871807 -1.02953,0 -1.86567,-0.837384 -1.86567,-1.871807 z"
       style="fill:#000000;fill-opacity:1;fill-rule:nonzero;stroke:#000000;stroke-width:1.04388;stroke-linecap:butt;stroke-linejoin:miter;stroke-miterlimit:10;stroke-dasharray:none;stroke-opacity:1" />
    <path
       id="path68"
       d="m 156.38935,91.009845 c 0,-1.034422 0.8374,-1.870582 1.87551,-1.870582 1.0295,0 1.86688,0.83616 1.86688,1.870582 0,1.034422 -0.83738,1.871815 -1.86688,1.871815 -1.03811,0 -1.87551,-0.837393 -1.87551,-1.871815 z"
       style="fill:#000000;fill-opacity:1;fill-rule:nonzero;stroke:#000000;stroke-width:1.04388;stroke-linecap:butt;stroke-linejoin:miter;stroke-miterlimit:10;stroke-dasharray:none;stroke-opacity:1" />
    <path
       id="path69"
       d="M 170.68536,78.584441 H 145.83574"
       style="fill:none;stroke:#000000;stroke-width:1.04388;stroke-linecap:butt;stroke-linejoin:miter;stroke-miterlimit:10;stroke-dasharray:none;stroke-opacity:1" />
    <path
       id="path70"
       d="M 158.26486,91.009845 145.83574,78.584441"
       style="fill:none;stroke:#000000;stroke-width:1.04388;stroke-linecap:butt;stroke-linejoin:miter;stroke-miterlimit:10;stroke-dasharray:none;stroke-opacity:1" />
    <path
       id="path71"
       d="m 170.68536,78.584441 -12.4205,12.425404"
       style="fill:none;stroke:#000000;stroke-width:1.04388;stroke-linecap:butt;stroke-linejoin:miter;stroke-miterlimit:10;stroke-dasharray:none;stroke-opacity:1" />
    <path
       id="path72"
       d="m 181.28818,78.584441 c 0,-6.892471 5.58468,-12.477139 12.47715,-12.477139 6.88877,0 12.47838,5.584668 12.47838,12.477139 0,6.888768 -5.58961,12.473428 -12.47838,12.473428 -6.89247,0 -12.47715,-5.58466 -12.47715,-12.473428 z"
       style="fill:#ffffff;fill-opacity:1;fill-rule:nonzero;stroke:#e6f7fd;stroke-width:1.04388;stroke-linecap:butt;stroke-linejoin:miter;stroke-miterlimit:10;stroke-dasharray:none;stroke-opacity:1" />
    <path
       id="path73"
       d="m 181.28818,78.584441 c 0,-6.892471 5.58468,-12.477139 12.47715,-12.477139 6.88877,0 12.47838,5.584668 12.47838,12.477139 0,6.888768 -5.58961,12.473428 -12.47838,12.473428 -6.89247,0 -12.47715,-5.58466 -12.47715,-12.473428 z"
       style="fill:none;stroke:#000000;stroke-width:1.04388;stroke-linecap:butt;stroke-linejoin:miter;stroke-miterlimit:10;stroke-dasharray:none;stroke-opacity:1" />
    <path
       id="path74"
       d="m 197.31564,66.173805 c 0,-1.928461 -1.56274,-3.492415 -3.49735,-3.492415 -0.89406,0 -1.70681,0.337413 -2.32745,0.885424 L 179.12821,75.96389 c -0.7364,0.716713 -1.38537,1.673552 -1.38537,2.789254 0,0.648978 0.17733,1.256084 0.48518,1.775759 0.22166,0.374365 0.5677,0.648986 0.8657,0.980247 l 12.36263,11.915585 c 0.61573,0.529523 1.41494,0.84724 2.28559,0.84724 1.92846,0 3.49239,-1.563946 3.49239,-3.492408 l 0.0813,-24.605762"
       style="fill:#aaaaff;fill-opacity:1;fill-rule:nonzero;stroke:#001b7e;stroke-width:0.740039;stroke-linecap:round;stroke-linejoin:miter;stroke-miterlimit:4;stroke-dasharray:none;stroke-opacity:1" />
    <path
       id="path75"
       d="m 179.46933,78.584441 c 0,-1.033198 0.8374,-1.87059 1.8718,-1.87059 1.0332,0 1.8706,0.837392 1.8706,1.87059 0,1.034423 -0.8374,1.871807 -1.8706,1.871807 -1.0344,0 -1.8718,-0.837384 -1.8718,-1.871807 z"
       style="fill:#000000;fill-opacity:1;fill-rule:nonzero;stroke:#000000;stroke-width:1.04388;stroke-linecap:butt;stroke-linejoin:miter;stroke-miterlimit:10;stroke-dasharray:none;stroke-opacity:1" />
    <path
       id="path76"
       d="m 191.88982,66.160262 c 0,-1.034423 0.84233,-1.871815 1.87551,-1.871815 1.02948,0 1.87181,0.837392 1.87181,1.871815 0,1.03319 -0.84233,1.870582 -1.87181,1.870582 -1.03318,0 -1.87551,-0.837392 -1.87551,-1.870582 z"
       style="fill:#000000;fill-opacity:1;fill-rule:nonzero;stroke:#000000;stroke-width:1.04388;stroke-linecap:butt;stroke-linejoin:miter;stroke-miterlimit:10;stroke-dasharray:none;stroke-opacity:1" />
    <path
       id="path77"
       d="m 202.72786,78.647241 c 0,1.905062 1.54427,3.449312 3.44934,3.449312 1.90874,0 3.45298,-1.54425 3.45298,-3.449312 0,-1.90999 -1.54424,-3.45424 -3.45298,-3.45424 -1.90507,0 -3.44934,1.54425 -3.44934,3.45424 z"
       style="fill:#aaaaff;fill-opacity:1;fill-rule:nonzero;stroke:#001b7e;stroke-width:0.739647;stroke-linecap:round;stroke-linejoin:miter;stroke-miterlimit:4;stroke-dasharray:none;stroke-opacity:1" />
    <path
       id="path78"
       d="m 204.32016,78.584441 c 0,-1.033198 0.83614,-1.87059 1.87058,-1.87059 1.03442,0 1.87182,0.837392 1.87182,1.87059 0,1.034423 -0.8374,1.871807 -1.87182,1.871807 -1.03444,0 -1.87058,-0.837384 -1.87058,-1.871807 z"
       style="fill:#000000;fill-opacity:1;fill-rule:nonzero;stroke:#000000;stroke-width:1.04388;stroke-linecap:butt;stroke-linejoin:miter;stroke-miterlimit:10;stroke-dasharray:none;stroke-opacity:1" />
    <path
       id="path79"
       d="m 191.88982,91.009845 c 0,-1.034422 0.84233,-1.870582 1.87551,-1.870582 1.02948,0 1.87181,0.83616 1.87181,1.870582 0,1.034422 -0.84233,1.871815 -1.87181,1.871815 -1.03318,0 -1.87551,-0.837393 -1.87551,-1.871815 z"
       style="fill:#000000;fill-opacity:1;fill-rule:nonzero;stroke:#000000;stroke-width:1.04388;stroke-linecap:butt;stroke-linejoin:miter;stroke-miterlimit:10;stroke-dasharray:none;stroke-opacity:1" />
    <path
       id="path80"
       d="M 193.76533,91.009845 181.34113,78.584441"
       style="fill:none;stroke:#000000;stroke-width:1.04388;stroke-linecap:butt;stroke-linejoin:miter;stroke-miterlimit:10;stroke-dasharray:none;stroke-opacity:1" />
    <path
       id="path81"
       d="m 181.34113,78.584441 12.4242,-12.424179"
       style="fill:none;stroke:#000000;stroke-width:1.04388;stroke-linecap:butt;stroke-linejoin:miter;stroke-miterlimit:10;stroke-dasharray:none;stroke-opacity:1" />
    <path
       id="path82"
       d="M 193.76533,91.009845 V 66.160262"
       style="fill:none;stroke:#000000;stroke-width:1.04388;stroke-linecap:butt;stroke-linejoin:miter;stroke-miterlimit:10;stroke-dasharray:none;stroke-opacity:1" />
    <path
       id="path83"
       d="m 3.7797294,78.584441 c 0,-6.892471 5.5846679,-12.477139 12.4783636,-12.477139 6.888783,0 12.473443,5.584668 12.473443,12.477139 0,6.888768 -5.58466,12.473428 -12.473443,12.473428 -6.8936957,0 -12.4783636,-5.58466 -12.4783636,-12.473428 z"
       style="fill:#ffffff;fill-opacity:1;fill-rule:nonzero;stroke:#e6f7fd;stroke-width:1.04388;stroke-linecap:butt;stroke-linejoin:miter;stroke-miterlimit:10;stroke-dasharray:none;stroke-opacity:1" />
    <path
       id="path84"
       d="m 3.7797294,78.584441 c 0,-6.892471 5.5846679,-12.477139 12.4783636,-12.477139 6.888783,0 12.473443,5.584668 12.473443,12.477139 0,6.888768 -5.58466,12.473428 -12.473443,12.473428 -6.8936957,0 -12.4783636,-5.58466 -12.4783636,-12.473428 z"
       style="fill:none;stroke:#000000;stroke-width:1.04388;stroke-linecap:butt;stroke-linejoin:miter;stroke-miterlimit:10;stroke-dasharray:none;stroke-opacity:1" />
    <path
       id="path85"
       d="m 0.36982537,78.647241 c 0,1.905062 1.54301763,3.449312 3.44808783,3.449312 1.9099901,0 3.4542397,-1.54425 3.4542397,-3.449312 0,-1.90999 -1.5442496,-3.45424 -3.4542397,-3.45424 -1.9050702,0 -3.44808783,1.54425 -3.44808783,3.45424 z"
       style="fill:#aaaaff;fill-opacity:1;fill-rule:nonzero;stroke:#001b7e;stroke-width:0.739647;stroke-linecap:round;stroke-linejoin:miter;stroke-miterlimit:4;stroke-dasharray:none;stroke-opacity:1" />
    <path
       id="path86"
       d="m 1.9608746,78.584441 c 0,-1.033198 0.8374002,-1.87059 1.8668865,-1.87059 1.0344141,0 1.8767262,0.837392 1.8767262,1.87059 0,1.034423 -0.8423121,1.871807 -1.8767262,1.871807 -1.0294863,0 -1.8668865,-0.837384 -1.8668865,-1.871807 z"
       style="fill:#000000;fill-opacity:1;fill-rule:nonzero;stroke:#000000;stroke-width:1.04388;stroke-linecap:butt;stroke-linejoin:miter;stroke-miterlimit:10;stroke-dasharray:none;stroke-opacity:1" />
    <path
       id="path87"
       d="m 12.707798,66.173805 c 0,-1.928461 1.563953,-3.492415 3.492415,-3.492415 0.895272,0 1.712952,0.337413 2.328682,0.885424 L 30.891508,75.96389 c 0.735185,0.716713 1.390307,1.673552 1.390307,2.789254 0,0.648978 -0.178729,1.256084 -0.491331,1.775759 -0.216775,0.374365 -0.562771,0.648986 -0.865728,0.980247 L 18.562159,93.424735 c -0.61573,0.529523 -1.41001,0.84724 -2.280666,0.84724 -1.93339,0 -3.496096,-1.563946 -3.496096,-3.492408 l -0.07749,-24.605762"
       style="fill:#aaaaff;fill-opacity:1;fill-rule:nonzero;stroke:#001b7e;stroke-width:0.740039;stroke-linecap:round;stroke-linejoin:miter;stroke-miterlimit:4;stroke-dasharray:none;stroke-opacity:1" />
    <path
       id="path88"
       d="m 14.381358,66.160262 c 0,-1.034423 0.842329,-1.871815 1.876735,-1.871815 1.029494,0 1.87059,0.837392 1.87059,1.871815 0,1.03319 -0.841096,1.870582 -1.87059,1.870582 -1.034406,0 -1.876735,-0.837392 -1.876735,-1.870582 z"
       style="fill:#000000;fill-opacity:1;fill-rule:nonzero;stroke:#000000;stroke-width:1.04388;stroke-linecap:butt;stroke-linejoin:miter;stroke-miterlimit:10;stroke-dasharray:none;stroke-opacity:1" />
    <path
       id="path89"
       d="m 30.554103,78.584441 c 0,-1.033198 -0.841096,-1.87059 -1.870598,-1.87059 -1.039359,0 -1.876759,0.837392 -1.876759,1.87059 0,1.034423 0.8374,1.871807 1.876759,1.871807 1.029502,0 1.870598,-0.837384 1.870598,-1.871807 z"
       style="fill:#000000;fill-opacity:1;fill-rule:nonzero;stroke:#000000;stroke-width:1.04388;stroke-linecap:butt;stroke-linejoin:miter;stroke-miterlimit:10;stroke-dasharray:none;stroke-opacity:1" />
    <path
       id="path90"
       d="m 14.381358,91.009845 c 0,-1.034422 0.842329,-1.870582 1.876735,-1.870582 1.029494,0 1.87059,0.83616 1.87059,1.870582 0,1.034422 -0.841096,1.871815 -1.87059,1.871815 -1.034406,0 -1.876735,-0.837393 -1.876735,-1.871815 z"
       style="fill:#000000;fill-opacity:1;fill-rule:nonzero;stroke:#000000;stroke-width:1.04388;stroke-linecap:butt;stroke-linejoin:miter;stroke-miterlimit:10;stroke-dasharray:none;stroke-opacity:1" />
    <path
       id="path91"
       d="M 28.683505,78.584441 16.258093,91.009845"
       style="fill:none;stroke:#000000;stroke-width:1.04388;stroke-linecap:butt;stroke-linejoin:miter;stroke-miterlimit:10;stroke-dasharray:none;stroke-opacity:1" />
    <path
       id="path92"
       d="M 16.258093,91.009845 V 66.160262"
       style="fill:none;stroke:#000000;stroke-width:1.04388;stroke-linecap:butt;stroke-linejoin:miter;stroke-miterlimit:10;stroke-dasharray:none;stroke-opacity:1" />
    <path
       id="path93"
       d="M 28.683505,78.584441 16.258093,66.160262"
       style="fill:none;stroke:#000000;stroke-width:1.04388;stroke-linecap:butt;stroke-linejoin:miter;stroke-miterlimit:10;stroke-dasharray:none;stroke-opacity:1" />
    <path
       id="path94"
       d="m 92.530907,211.66436 c 0,-6.88876 5.589556,-12.47834 12.478333,-12.47834 6.8937,0 12.47836,5.58958 12.47836,12.47834 0,6.89248 -5.58466,12.47837 -12.47836,12.47837 -6.888777,0 -12.478333,-5.58589 -12.478333,-12.47837 z"
       style="fill:#ffffff;fill-opacity:1;fill-rule:nonzero;stroke:#e6f7fd;stroke-width:1.04388;stroke-linecap:butt;stroke-linejoin:miter;stroke-miterlimit:10;stroke-dasharray:none;stroke-opacity:1" />
    <path
       id="path95"
       d="m 92.530907,211.66436 c 0,-6.88876 5.589556,-12.47834 12.478333,-12.47834 6.8937,0 12.47836,5.58958 12.47836,12.47834 0,6.89248 -5.58466,12.47837 -12.47836,12.47837 -6.888777,0 -12.478333,-5.58589 -12.478333,-12.47837 z"
       style="fill:none;stroke:#000000;stroke-width:1.04603;stroke-linecap:butt;stroke-linejoin:miter;stroke-miterlimit:10;stroke-dasharray:none;stroke-opacity:1" />
    <path
       id="path96"
       d="m 89.125915,211.72717 c 0,1.90384 1.544234,3.45301 3.449312,3.45301 1.90875,0 3.453016,-1.54917 3.453016,-3.45301 0,-1.90999 -1.544266,-3.45424 -3.453016,-3.45424 -1.905078,0 -3.449312,1.54425 -3.449312,3.45424 z"
       style="fill:#aaaaff;fill-opacity:1;fill-rule:nonzero;stroke:#001b7e;stroke-width:0.739647;stroke-linecap:round;stroke-linejoin:miter;stroke-miterlimit:4;stroke-dasharray:none;stroke-opacity:1" />
    <path
       id="path97"
       d="m 113.9718,211.72717 c 0,1.90384 1.54793,3.45301 3.45301,3.45301 1.90507,0 3.45422,-1.54917 3.45422,-3.45301 0,-1.90506 -1.54915,-3.45424 -3.45422,-3.45424 -1.90508,0 -3.45301,1.54918 -3.45301,3.45424 z"
       style="fill:#aaaaff;fill-opacity:1;fill-rule:nonzero;stroke:#001b7e;stroke-width:0.739647;stroke-linecap:round;stroke-linejoin:miter;stroke-miterlimit:4;stroke-dasharray:none;stroke-opacity:1" />
    <path
       id="path98"
       d="m 115.56284,211.66436 c 0,-1.02948 0.8374,-1.87181 1.87181,-1.87181 1.03441,0 1.87181,0.84233 1.87181,1.87181 0,1.03443 -0.8374,1.87551 -1.87181,1.87551 -1.03441,0 -1.87181,-0.84108 -1.87181,-1.87551 z"
       style="fill:#000000;fill-opacity:1;fill-rule:nonzero;stroke:#000000;stroke-width:1.04388;stroke-linecap:butt;stroke-linejoin:miter;stroke-miterlimit:10;stroke-dasharray:none;stroke-opacity:1" />
    <path
       id="path99"
       d="m 90.713268,211.66436 c 0,-1.02948 0.836136,-1.86688 1.870583,-1.86688 1.034414,0 1.871814,0.8374 1.871814,1.86688 0,1.03936 -0.8374,1.87551 -1.871814,1.87551 -1.034447,0 -1.870583,-0.83615 -1.870583,-1.87551 z"
       style="fill:#000000;fill-opacity:1;fill-rule:nonzero;stroke:#000000;stroke-width:1.04388;stroke-linecap:butt;stroke-linejoin:miter;stroke-miterlimit:10;stroke-dasharray:none;stroke-opacity:1" />
    <path
       id="path100"
       d="m 101.54638,224.15135 c 0,1.90999 1.54428,3.45424 3.45301,3.45424 1.90508,0 3.45424,-1.54425 3.45424,-3.45424 0,-1.90384 -1.54916,-3.45301 -3.45424,-3.45301 -1.90873,0 -3.45301,1.54917 -3.45301,3.45301 z"
       style="fill:#aaaaff;fill-opacity:1;fill-rule:nonzero;stroke:#001b7e;stroke-width:0.739647;stroke-linecap:round;stroke-linejoin:miter;stroke-miterlimit:4;stroke-dasharray:none;stroke-opacity:1" />
    <path
       id="path101"
       d="m 103.13866,224.09471 c 0,-1.03443 0.83616,-1.87674 1.87058,-1.87674 1.03444,0 1.87184,0.84231 1.87184,1.87674 0,1.02825 -0.8374,1.87058 -1.87184,1.87058 -1.03442,0 -1.87058,-0.84233 -1.87058,-1.87058 z"
       style="fill:#000000;fill-opacity:1;fill-rule:nonzero;stroke:#000000;stroke-width:1.04388;stroke-linecap:butt;stroke-linejoin:miter;stroke-miterlimit:10;stroke-dasharray:none;stroke-opacity:1" />
    <path
       id="path102"
       d="m 101.54638,199.30177 c 0,1.90506 1.54428,3.44931 3.45301,3.44931 1.90508,0 3.45424,-1.54425 3.45424,-3.44931 0,-1.90998 -1.54916,-3.45424 -3.45424,-3.45424 -1.90873,0 -3.45301,1.54426 -3.45301,3.45424 z"
       style="fill:#aaaaff;fill-opacity:1;fill-rule:nonzero;stroke:#001b7e;stroke-width:0.739647;stroke-linecap:round;stroke-linejoin:miter;stroke-miterlimit:4;stroke-dasharray:none;stroke-opacity:1" />
    <path
       id="path103"
       d="m 103.13866,199.23896 c 0,-1.03443 0.83616,-1.87181 1.87058,-1.87181 1.03444,0 1.87184,0.83738 1.87184,1.87181 0,1.03443 -0.8374,1.87058 -1.87184,1.87058 -1.03442,0 -1.87058,-0.83615 -1.87058,-1.87058 z"
       style="fill:#000000;fill-opacity:1;fill-rule:nonzero;stroke:#000000;stroke-width:1.04388;stroke-linecap:butt;stroke-linejoin:miter;stroke-miterlimit:10;stroke-dasharray:none;stroke-opacity:1" />
    <path
       id="path104"
       d="m 110.28605,149.55703 c 0,-6.89247 5.58465,-12.47834 12.47833,-12.47834 6.8888,0 12.47346,5.58587 12.47346,12.47834 0,6.88878 -5.58466,12.47344 -12.47346,12.47344 -6.89368,0 -12.47833,-5.58466 -12.47833,-12.47344 z"
       style="fill:#ffffff;fill-opacity:1;fill-rule:nonzero;stroke:#e6f7fd;stroke-width:1.04388;stroke-linecap:butt;stroke-linejoin:miter;stroke-miterlimit:10;stroke-dasharray:none;stroke-opacity:1" />
    <path
       id="path105"
       d="m 110.28605,149.55703 c 0,-6.89247 5.58465,-12.47834 12.47833,-12.47834 6.8888,0 12.47346,5.58587 12.47346,12.47834 0,6.88878 -5.58466,12.47344 -12.47346,12.47344 -6.89368,0 -12.47833,-5.58466 -12.47833,-12.47344 z"
       style="fill:none;stroke:#000000;stroke-width:1.04388;stroke-linecap:butt;stroke-linejoin:miter;stroke-miterlimit:10;stroke-dasharray:none;stroke-opacity:1" />
    <path
       id="path106"
       d="m 119.30154,137.18951 c 0,1.90999 1.54426,3.45424 3.453,3.45424 1.90507,0 3.44931,-1.54425 3.44931,-3.45424 0,-1.90507 -1.54424,-3.44933 -3.44931,-3.44933 -1.90874,0 -3.453,1.54426 -3.453,3.44933 z"
       style="fill:#aaaaff;fill-opacity:1;fill-rule:nonzero;stroke:#001b7e;stroke-width:0.739647;stroke-linecap:round;stroke-linejoin:miter;stroke-miterlimit:4;stroke-dasharray:none;stroke-opacity:1" />
    <path
       id="path107"
       d="m 120.88887,137.1267 c 0,-1.02827 0.83619,-1.86564 1.87551,-1.86564 1.02954,0 1.86691,0.83737 1.86691,1.86564 0,1.03443 -0.83737,1.87674 -1.86691,1.87674 -1.03932,0 -1.87551,-0.84231 -1.87551,-1.87674 z"
       style="fill:#000000;fill-opacity:1;fill-rule:nonzero;stroke:#000000;stroke-width:1.04388;stroke-linecap:butt;stroke-linejoin:miter;stroke-miterlimit:10;stroke-dasharray:none;stroke-opacity:1" />
    <path
       id="path108"
       d="m 135.23784,146.08925 h -25.04292 c -1.8952,0 -3.42468,1.52947 -3.42468,3.42961 0,1.89521 1.52948,3.42469 3.42468,3.42469 h 25.04292 c 1.90015,0 3.42962,-1.52948 3.42962,-3.42469 0,-1.90014 -1.52947,-3.42961 -3.42962,-3.42961 z"
       style="fill:#aaaaff;fill-opacity:1;fill-rule:nonzero;stroke:#001b7e;stroke-width:0.740039;stroke-linecap:round;stroke-linejoin:round;stroke-miterlimit:4;stroke-dasharray:none;stroke-opacity:1" />
    <path
       id="path109"
       d="m 133.31429,149.55703 c 0,-1.03441 0.83618,-1.87551 1.8706,-1.87551 1.03442,0 1.87179,0.8411 1.87179,1.87551 0,1.02951 -0.83737,1.87182 -1.87179,1.87182 -1.03442,0 -1.8706,-0.84231 -1.8706,-1.87182 z"
       style="fill:#000000;fill-opacity:1;fill-rule:nonzero;stroke:#000000;stroke-width:1.04388;stroke-linecap:butt;stroke-linejoin:miter;stroke-miterlimit:10;stroke-dasharray:none;stroke-opacity:1" />
    <path
       id="path110"
       d="m 119.30154,162.04032 c 0,1.90507 1.54426,3.44932 3.453,3.44932 1.90507,0 3.44931,-1.54425 3.44931,-3.44932 0,-1.90998 -1.54424,-3.45424 -3.44931,-3.45424 -1.90874,0 -3.453,1.54426 -3.453,3.45424 z"
       style="fill:#aaaaff;fill-opacity:1;fill-rule:nonzero;stroke:#001b7e;stroke-width:0.739647;stroke-linecap:round;stroke-linejoin:miter;stroke-miterlimit:4;stroke-dasharray:none;stroke-opacity:1" />
    <path
       id="path111"
       d="m 120.88887,161.98245 c 0,-1.03444 0.83619,-1.87552 1.87551,-1.87552 1.02954,0 1.86691,0.84108 1.86691,1.87552 0,1.03442 -0.83737,1.87181 -1.86691,1.87181 -1.03932,0 -1.87551,-0.83739 -1.87551,-1.87181 z"
       style="fill:#000000;fill-opacity:1;fill-rule:nonzero;stroke:#000000;stroke-width:1.04388;stroke-linecap:butt;stroke-linejoin:miter;stroke-miterlimit:10;stroke-dasharray:none;stroke-opacity:1" />
    <path
       id="path112"
       d="M 135.18489,149.55703 H 110.33405"
       style="fill:none;stroke:#000000;stroke-width:1.04388;stroke-linecap:butt;stroke-linejoin:miter;stroke-miterlimit:10;stroke-dasharray:none;stroke-opacity:1" />
    <path
       id="path113"
       d="m 74.780665,149.55703 c 0,-6.89247 5.584636,-12.47834 12.478339,-12.47834 6.893704,0 12.478364,5.58587 12.478364,12.47834 0,6.88878 -5.58466,12.47344 -12.478364,12.47344 -6.893703,0 -12.478339,-5.58466 -12.478339,-12.47344 z"
       style="fill:#ffffff;fill-opacity:1;fill-rule:nonzero;stroke:#e6f7fd;stroke-width:1.04388;stroke-linecap:butt;stroke-linejoin:miter;stroke-miterlimit:10;stroke-dasharray:none;stroke-opacity:1" />
    <path
       id="path114"
       d="m 74.780665,149.55703 c 0,-6.89247 5.584636,-12.47834 12.478339,-12.47834 6.893704,0 12.478364,5.58587 12.478364,12.47834 0,6.88878 -5.58466,12.47344 -12.478364,12.47344 -6.893703,0 -12.478339,-5.58466 -12.478339,-12.47344 z"
       style="fill:none;stroke:#000000;stroke-width:1.04388;stroke-linecap:butt;stroke-linejoin:miter;stroke-miterlimit:10;stroke-dasharray:none;stroke-opacity:1" />
    <path
       id="path115"
       d="m 83.930396,136.94444 v 25.04293 c 0,1.90014 1.529473,3.42961 3.429583,3.42961 1.900159,0 3.429624,-1.52947 3.429624,-3.42961 v -25.04293 c 0,-1.89521 -1.529465,-3.42467 -3.429624,-3.42467 -1.90011,0 -3.429583,1.52946 -3.429583,3.42467 z"
       style="fill:#aaaaff;fill-opacity:1;fill-rule:nonzero;stroke:#001b7e;stroke-width:0.740039;stroke-linecap:round;stroke-linejoin:round;stroke-miterlimit:4;stroke-dasharray:none;stroke-opacity:1" />
    <path
       id="path116"
       d="m 71.370769,149.61491 c 0,1.90507 1.549146,3.45424 3.452976,3.45424 1.909998,0 3.454264,-1.54917 3.454264,-3.45424 0,-1.90506 -1.544266,-3.45424 -3.454264,-3.45424 -1.90383,0 -3.452976,1.54918 -3.452976,3.45424 z"
       style="fill:#aaaaff;fill-opacity:1;fill-rule:nonzero;stroke:#001b7e;stroke-width:0.739647;stroke-linecap:round;stroke-linejoin:miter;stroke-miterlimit:4;stroke-dasharray:none;stroke-opacity:1" />
    <path
       id="path117"
       d="m 72.963034,149.55703 c 0,-1.03441 0.836136,-1.87551 1.870583,-1.87551 1.034414,0 1.871814,0.8411 1.871814,1.87551 0,1.02951 -0.8374,1.87182 -1.871814,1.87182 -1.034447,0 -1.870583,-0.84231 -1.870583,-1.87182 z"
       style="fill:#000000;fill-opacity:1;fill-rule:nonzero;stroke:#000000;stroke-width:1.04388;stroke-linecap:butt;stroke-linejoin:miter;stroke-miterlimit:10;stroke-dasharray:none;stroke-opacity:1" />
    <path
       id="path118"
       d="m 85.388454,137.1267 c 0,-1.02827 0.836128,-1.86564 1.87055,-1.86564 1.034447,0 1.871839,0.83737 1.871839,1.86564 0,1.03443 -0.837392,1.87674 -1.871839,1.87674 -1.034422,0 -1.87055,-0.84231 -1.87055,-1.87674 z"
       style="fill:#000000;fill-opacity:1;fill-rule:nonzero;stroke:#000000;stroke-width:1.04388;stroke-linecap:butt;stroke-linejoin:miter;stroke-miterlimit:10;stroke-dasharray:none;stroke-opacity:1" />
    <path
       id="path119"
       d="m 96.220337,149.61491 c 0,1.91 1.544233,3.45424 3.449303,3.45424 1.91001,0 3.45424,-1.54424 3.45424,-3.45424 0,-1.90506 -1.54423,-3.45424 -3.45424,-3.45424 -1.90507,0 -3.449303,1.54918 -3.449303,3.45424 z"
       style="fill:#aaaaff;fill-opacity:1;fill-rule:nonzero;stroke:#001b7e;stroke-width:0.739647;stroke-linecap:round;stroke-linejoin:miter;stroke-miterlimit:4;stroke-dasharray:none;stroke-opacity:1" />
    <path
       id="path120"
       d="m 97.812602,149.55703 c 0,-1.03441 0.8374,-1.87551 1.871814,-1.87551 1.034444,0 1.871814,0.8411 1.871814,1.87551 0,1.02951 -0.83737,1.87182 -1.871814,1.87182 -1.034414,0 -1.871814,-0.84231 -1.871814,-1.87182 z"
       style="fill:#000000;fill-opacity:1;fill-rule:nonzero;stroke:#000000;stroke-width:1.04388;stroke-linecap:butt;stroke-linejoin:miter;stroke-miterlimit:10;stroke-dasharray:none;stroke-opacity:1" />
    <path
       id="path121"
       d="m 85.388454,161.98245 c 0,-1.03444 0.836128,-1.87552 1.87055,-1.87552 1.034447,0 1.871839,0.84108 1.871839,1.87552 0,1.03442 -0.837392,1.87181 -1.871839,1.87181 -1.034422,0 -1.87055,-0.83739 -1.87055,-1.87181 z"
       style="fill:#000000;fill-opacity:1;fill-rule:nonzero;stroke:#000000;stroke-width:1.04388;stroke-linecap:butt;stroke-linejoin:miter;stroke-miterlimit:10;stroke-dasharray:none;stroke-opacity:1" />
    <path
       id="path122"
       d="M 87.259004,161.98245 V 137.1267"
       style="fill:none;stroke:#000000;stroke-width:1.04388;stroke-linecap:butt;stroke-linejoin:miter;stroke-miterlimit:10;stroke-dasharray:none;stroke-opacity:1" />
    <path
       id="path123"
       d="m 39.280197,149.55703 c 0,-6.89247 5.584676,-12.47834 12.478364,-12.47834 6.888791,0 12.478379,5.58587 12.478379,12.47834 0,6.88878 -5.589588,12.47344 -12.478379,12.47344 -6.893688,0 -12.478364,-5.58466 -12.478364,-12.47344 z"
       style="fill:#ffffff;fill-opacity:1;fill-rule:nonzero;stroke:#e6f7fd;stroke-width:1.04388;stroke-linecap:butt;stroke-linejoin:miter;stroke-miterlimit:10;stroke-dasharray:none;stroke-opacity:1" />
    <path
       id="path124"
       d="m 39.280197,149.55703 c 0,-6.89247 5.584676,-12.47834 12.478364,-12.47834 6.888791,0 12.478379,5.58587 12.478379,12.47834 0,6.88878 -5.589588,12.47344 -12.478379,12.47344 -6.893688,0 -12.478364,-5.58466 -12.478364,-12.47344 z"
       style="fill:none;stroke:#000000;stroke-width:1.04603;stroke-linecap:butt;stroke-linejoin:miter;stroke-miterlimit:10;stroke-dasharray:none;stroke-opacity:1" />
    <path
       id="path125"
       d="m 35.870293,149.61491 c 0,1.90507 1.544234,3.45424 3.453008,3.45424 1.90507,0 3.449312,-1.54917 3.449312,-3.45424 0,-1.90506 -1.544242,-3.45424 -3.449312,-3.45424 -1.908774,0 -3.453008,1.54918 -3.453008,3.45424 z"
       style="fill:#aaaaff;fill-opacity:1;fill-rule:nonzero;stroke:#001b7e;stroke-width:0.739647;stroke-linecap:round;stroke-linejoin:miter;stroke-miterlimit:4;stroke-dasharray:none;stroke-opacity:1" />
    <path
       id="path126"
       d="m 37.462566,149.55703 c 0,-1.03441 0.836161,-1.87551 1.865663,-1.87551 1.039334,0 1.876726,0.8411 1.876726,1.87551 0,1.02951 -0.837392,1.87182 -1.876726,1.87182 -1.029502,0 -1.865663,-0.84231 -1.865663,-1.87182 z"
       style="fill:#000000;fill-opacity:1;fill-rule:nonzero;stroke:#000000;stroke-width:1.04388;stroke-linecap:butt;stroke-linejoin:miter;stroke-miterlimit:10;stroke-dasharray:none;stroke-opacity:1" />
    <path
       id="path127"
       d="m 48.290753,137.18951 c 0,1.90507 1.547978,3.45424 3.453016,3.45424 1.905078,0 3.454256,-1.54917 3.454256,-3.45424 0,-1.90999 -1.549178,-3.45301 -3.454256,-3.45301 -1.905038,0 -3.453016,1.54302 -3.453016,3.45301 z"
       style="fill:#aaaaff;fill-opacity:1;fill-rule:nonzero;stroke:#001b7e;stroke-width:0.739647;stroke-linecap:round;stroke-linejoin:miter;stroke-miterlimit:4;stroke-dasharray:none;stroke-opacity:1" />
    <path
       id="path128"
       d="m 49.88305,137.1267 c 0,-1.02827 0.841064,-1.86564 1.875511,-1.86564 1.029502,0 1.871814,0.83737 1.871814,1.86564 0,1.03443 -0.842312,1.87674 -1.871814,1.87674 -1.034447,0 -1.875511,-0.84231 -1.875511,-1.87674 z"
       style="fill:#000000;fill-opacity:1;fill-rule:nonzero;stroke:#000000;stroke-width:1.04388;stroke-linecap:butt;stroke-linejoin:miter;stroke-miterlimit:10;stroke-dasharray:none;stroke-opacity:1" />
    <path
       id="path129"
       d="M 66.848852,151.89065 54.097091,164.6424 c -1.357059,1.35706 -3.536719,1.35706 -4.888866,0 -1.350916,-1.35092 -1.350916,-3.53059 8.1e-4,-4.88274 l 12.751826,-12.75175 c 1.357067,-1.35706 3.535535,-1.35582 4.887683,-8.1e-4 1.352131,1.35215 1.352131,3.53182 0,4.88396 z"
       style="fill:#aaaaff;fill-opacity:1;fill-rule:nonzero;stroke:#001b7e;stroke-width:0.740039;stroke-linecap:round;stroke-linejoin:round;stroke-miterlimit:4;stroke-dasharray:none;stroke-opacity:1" />
    <path
       id="path130"
       d="m 62.312134,149.55703 c 0,-1.03441 0.8374,-1.87551 1.871814,-1.87551 1.034447,0 1.870623,0.8411 1.870623,1.87551 0,1.02951 -0.836176,1.87182 -1.870623,1.87182 -1.034414,0 -1.871814,-0.84231 -1.871814,-1.87182 z"
       style="fill:#000000;fill-opacity:1;fill-rule:nonzero;stroke:#000000;stroke-width:1.04388;stroke-linecap:butt;stroke-linejoin:miter;stroke-miterlimit:10;stroke-dasharray:none;stroke-opacity:1" />
    <path
       id="path131"
       d="m 49.88305,161.98245 c 0,-1.03444 0.841064,-1.87552 1.875511,-1.87552 1.029502,0 1.871814,0.84108 1.871814,1.87552 0,1.03442 -0.842312,1.87181 -1.871814,1.87181 -1.034447,0 -1.875511,-0.83739 -1.875511,-1.87181 z"
       style="fill:#000000;fill-opacity:1;fill-rule:nonzero;stroke:#000000;stroke-width:1.04388;stroke-linecap:butt;stroke-linejoin:miter;stroke-miterlimit:10;stroke-dasharray:none;stroke-opacity:1" />
    <path
       id="path132"
       d="M 64.183948,149.55703 51.758561,161.98245"
       style="fill:none;stroke:#000000;stroke-width:1.04388;stroke-linecap:butt;stroke-linejoin:miter;stroke-miterlimit:10;stroke-dasharray:none;stroke-opacity:1" />
    <path
       id="path133"
       d="m 145.78649,149.55703 c 0,-6.89247 5.5859,-12.47834 12.47837,-12.47834 6.88877,0 12.47838,5.58587 12.47838,12.47834 0,6.88878 -5.58961,12.47344 -12.47838,12.47344 -6.89247,0 -12.47837,-5.58466 -12.47837,-12.47344 z"
       style="fill:#ffffff;fill-opacity:1;fill-rule:nonzero;stroke:#e6f7fd;stroke-width:1.04388;stroke-linecap:butt;stroke-linejoin:miter;stroke-miterlimit:10;stroke-dasharray:none;stroke-opacity:1" />
    <path
       id="path134"
       d="m 145.78649,149.55703 c 0,-6.89247 5.5859,-12.47834 12.47837,-12.47834 6.88877,0 12.47838,5.58587 12.47838,12.47834 0,6.88878 -5.58961,12.47344 -12.47838,12.47344 -6.89247,0 -12.47837,-5.58466 -12.47837,-12.47344 z"
       style="fill:none;stroke:#000000;stroke-width:1.04388;stroke-linecap:butt;stroke-linejoin:miter;stroke-miterlimit:10;stroke-dasharray:none;stroke-opacity:1" />
    <path
       id="path135"
       d="m 160.83,139.51326 -12.75298,12.75298 c -1.35093,1.35091 -3.53059,1.35091 -4.88765,-8.1e-4 -1.35091,-1.35092 -1.35091,-3.53058 0,-4.8815 l 12.75788,-12.75832 c 1.35091,-1.35091 3.53062,-1.35091 4.8815,0 1.35709,1.35707 1.35709,3.53674 10e-4,4.88765 z"
       style="fill:#aaaaff;fill-opacity:1;fill-rule:nonzero;stroke:#001b7e;stroke-width:0.740039;stroke-linecap:round;stroke-linejoin:round;stroke-miterlimit:4;stroke-dasharray:none;stroke-opacity:1" />
    <path
       id="path136"
       d="m 143.96393,149.55703 c 0,-1.03441 0.84233,-1.87551 1.87181,-1.87551 1.03323,0 1.87555,0.8411 1.87555,1.87551 0,1.02951 -0.84232,1.87182 -1.87555,1.87182 -1.02948,0 -1.87181,-0.84231 -1.87181,-1.87182 z"
       style="fill:#000000;fill-opacity:1;fill-rule:nonzero;stroke:#000000;stroke-width:1.04388;stroke-linecap:butt;stroke-linejoin:miter;stroke-miterlimit:10;stroke-dasharray:none;stroke-opacity:1" />
    <path
       id="path137"
       d="m 156.38935,137.1267 c 0,-1.02827 0.8374,-1.86564 1.87551,-1.86564 1.0295,0 1.86688,0.83737 1.86688,1.86564 0,1.03443 -0.83738,1.87674 -1.86688,1.87674 -1.03811,0 -1.87551,-0.84231 -1.87551,-1.87674 z"
       style="fill:#000000;fill-opacity:1;fill-rule:nonzero;stroke:#000000;stroke-width:1.04388;stroke-linecap:butt;stroke-linejoin:miter;stroke-miterlimit:10;stroke-dasharray:none;stroke-opacity:1" />
    <path
       id="path138"
       d="m 167.22249,149.61491 c 0,1.91 1.54917,3.45424 3.45298,3.45424 1.91,0 3.45427,-1.54424 3.45427,-3.45424 0,-1.90506 -1.54427,-3.45424 -3.45427,-3.45424 -1.90381,0 -3.45298,1.54918 -3.45298,3.45424 z"
       style="fill:#aaaaff;fill-opacity:1;fill-rule:nonzero;stroke:#001b7e;stroke-width:0.739647;stroke-linecap:round;stroke-linejoin:miter;stroke-miterlimit:4;stroke-dasharray:none;stroke-opacity:1" />
    <path
       id="path139"
       d="m 168.81969,149.55703 c 0,-1.03441 0.83614,-1.87551 1.86567,-1.87551 1.03933,0 1.87673,0.8411 1.87673,1.87551 0,1.02951 -0.8374,1.87182 -1.87673,1.87182 -1.02953,0 -1.86567,-0.84231 -1.86567,-1.87182 z"
       style="fill:#000000;fill-opacity:1;fill-rule:nonzero;stroke:#000000;stroke-width:1.04388;stroke-linecap:butt;stroke-linejoin:miter;stroke-miterlimit:10;stroke-dasharray:none;stroke-opacity:1" />
    <path
       id="path140"
       d="m 154.80201,162.04032 c 0,1.90507 1.54423,3.45424 3.453,3.45424 1.90508,0 3.44931,-1.54917 3.44931,-3.45424 0,-1.90998 -1.54423,-3.45424 -3.44931,-3.45424 -1.90877,0 -3.453,1.54426 -3.453,3.45424 z"
       style="fill:#aaaaff;fill-opacity:1;fill-rule:nonzero;stroke:#001b7e;stroke-width:0.739647;stroke-linecap:round;stroke-linejoin:miter;stroke-miterlimit:4;stroke-dasharray:none;stroke-opacity:1" />
    <path
       id="path141"
       d="m 156.38935,161.98245 c 0,-1.03444 0.8374,-1.87552 1.87551,-1.87552 1.0295,0 1.86688,0.84108 1.86688,1.87552 0,1.03442 -0.83738,1.87181 -1.86688,1.87181 -1.03811,0 -1.87551,-0.83739 -1.87551,-1.87181 z"
       style="fill:#000000;fill-opacity:1;fill-rule:nonzero;stroke:#000000;stroke-width:1.04388;stroke-linecap:butt;stroke-linejoin:miter;stroke-miterlimit:10;stroke-dasharray:none;stroke-opacity:1" />
    <path
       id="path142"
       d="M 145.83574,149.55703 158.26486,137.1267"
       style="fill:none;stroke:#000000;stroke-width:1.04388;stroke-linecap:butt;stroke-linejoin:miter;stroke-miterlimit:10;stroke-dasharray:none;stroke-opacity:1" />
    <path
       id="path143"
       d="m 3.7797294,149.55703 c 0,-6.89247 5.5846679,-12.47834 12.4783636,-12.47834 6.888783,0 12.473443,5.58587 12.473443,12.47834 0,6.88878 -5.58466,12.47344 -12.473443,12.47344 -6.8936957,0 -12.4783636,-5.58466 -12.4783636,-12.47344 z"
       style="fill:#ffffff;fill-opacity:1;fill-rule:nonzero;stroke:#e6f7fd;stroke-width:1.04388;stroke-linecap:butt;stroke-linejoin:miter;stroke-miterlimit:10;stroke-dasharray:none;stroke-opacity:1" />
    <path
       id="path144"
       d="m 3.7797294,149.55703 c 0,-6.89247 5.5846679,-12.47834 12.4783636,-12.47834 6.888783,0 12.473443,5.58587 12.473443,12.47834 0,6.88878 -5.58466,12.47344 -12.473443,12.47344 -6.8936957,0 -12.4783636,-5.58466 -12.4783636,-12.47344 z"
       style="fill:none;stroke:#000000;stroke-width:1.04388;stroke-linecap:butt;stroke-linejoin:miter;stroke-miterlimit:10;stroke-dasharray:none;stroke-opacity:1" />
    <path
       id="path145"
       d="m 12.794021,162.04032 c 0,1.90507 1.544234,3.44932 3.454224,3.44932 1.90507,0 3.449312,-1.54425 3.449312,-3.44932 0,-1.90998 -1.544242,-3.45424 -3.449312,-3.45424 -1.90999,0 -3.454224,1.54426 -3.454224,3.45424 z"
       style="fill:#aaaaff;fill-opacity:1;fill-rule:nonzero;stroke:#001b7e;stroke-width:0.739647;stroke-linecap:round;stroke-linejoin:miter;stroke-miterlimit:4;stroke-dasharray:none;stroke-opacity:1" />
    <path
       id="path146"
       d="m 0.36982537,149.61491 c 0,1.90507 1.54301763,3.45424 3.44808783,3.45424 1.9099901,0 3.4542397,-1.54917 3.4542397,-3.45424 0,-1.90506 -1.5442496,-3.45424 -3.4542397,-3.45424 -1.9050702,0 -3.44808783,1.54918 -3.44808783,3.45424 z"
       style="fill:#aaaaff;fill-opacity:1;fill-rule:nonzero;stroke:#001b7e;stroke-width:0.739647;stroke-linecap:round;stroke-linejoin:miter;stroke-miterlimit:4;stroke-dasharray:none;stroke-opacity:1" />
    <path
       id="path147"
       d="m 1.9608746,149.55703 c 0,-1.03441 0.8374002,-1.87551 1.8668865,-1.87551 1.0344141,0 1.8767262,0.8411 1.8767262,1.87551 0,1.02951 -0.8423121,1.87182 -1.8767262,1.87182 -1.0294863,0 -1.8668865,-0.84231 -1.8668865,-1.87182 z"
       style="fill:#000000;fill-opacity:1;fill-rule:nonzero;stroke:#000000;stroke-width:1.04388;stroke-linecap:butt;stroke-linejoin:miter;stroke-miterlimit:10;stroke-dasharray:none;stroke-opacity:1" />
    <path
       id="path148"
       d="m 13.555038,139.42214 12.756689,12.75173 c 1.352139,1.35215 3.53179,1.35215 4.882706,8.1e-4 1.352147,-1.35213 1.352147,-3.5318 0,-4.88888 L 18.442704,134.53406 c -1.352131,-1.35213 -3.531831,-1.35213 -4.888898,0 -1.350915,1.35091 -1.350915,3.5306 8.1e-4,4.88766 z"
       style="fill:#aaaaff;fill-opacity:1;fill-rule:nonzero;stroke:#001b7e;stroke-width:0.740039;stroke-linecap:round;stroke-linejoin:round;stroke-miterlimit:4;stroke-dasharray:none;stroke-opacity:1" />
    <path
       id="path149"
       d="m 14.381358,137.1267 c 0,-1.02827 0.842329,-1.86564 1.876735,-1.86564 1.029494,0 1.87059,0.83737 1.87059,1.86564 0,1.03443 -0.841096,1.87674 -1.87059,1.87674 -1.034406,0 -1.876735,-0.84231 -1.876735,-1.87674 z"
       style="fill:#000000;fill-opacity:1;fill-rule:nonzero;stroke:#000000;stroke-width:1.04388;stroke-linecap:butt;stroke-linejoin:miter;stroke-miterlimit:10;stroke-dasharray:none;stroke-opacity:1" />
    <path
       id="path150"
       d="m 26.806746,149.55703 c 0,-1.03441 0.842312,-1.87551 1.876759,-1.87551 1.029502,0 1.86567,0.8411 1.86567,1.87551 0,1.02951 -0.836168,1.87182 -1.86567,1.87182 -1.034447,0 -1.876759,-0.84231 -1.876759,-1.87182 z"
       style="fill:#000000;fill-opacity:1;fill-rule:nonzero;stroke:#000000;stroke-width:1.04388;stroke-linecap:butt;stroke-linejoin:miter;stroke-miterlimit:10;stroke-dasharray:none;stroke-opacity:1" />
    <path
       id="path151"
       d="m 14.381358,161.98245 c 0,-1.03444 0.842329,-1.87552 1.876735,-1.87552 1.029494,0 1.87059,0.84108 1.87059,1.87552 0,1.03442 -0.841096,1.87181 -1.87059,1.87181 -1.034406,0 -1.876735,-0.83739 -1.876735,-1.87181 z"
       style="fill:#000000;fill-opacity:1;fill-rule:nonzero;stroke:#000000;stroke-width:1.04388;stroke-linecap:butt;stroke-linejoin:miter;stroke-miterlimit:10;stroke-dasharray:none;stroke-opacity:1" />
    <path
       id="path152"
       d="M 28.683505,149.55703 16.258093,137.1267"
       style="fill:none;stroke:#000000;stroke-width:1.04388;stroke-linecap:butt;stroke-linejoin:miter;stroke-miterlimit:10;stroke-dasharray:none;stroke-opacity:1" />
    <path
       id="path153"
       d="m 92.530907,16.473413 c 0,-6.8936995 5.589556,-12.4783625 12.478333,-12.4783625 6.8937,0 12.47836,5.584663 12.47836,12.4783625 0,6.893701 -5.58466,12.478353 -12.47836,12.478353 -6.888777,0 -12.478333,-5.584652 -12.478333,-12.478353 z"
       style="fill:#ffffff;fill-opacity:1;fill-rule:nonzero;stroke:#e6f7fd;stroke-width:1.04388;stroke-linecap:butt;stroke-linejoin:miter;stroke-miterlimit:10;stroke-dasharray:none;stroke-opacity:1" />
    <path
       id="path154"
       d="M 102.31605,1.5185896 89.996539,13.838086 c -1.534386,1.534402 -1.53561,4.001005 0,5.541558 l 12.318291,12.318279 c 1.53561,1.53562 4.00713,1.534392 5.54156,0 l 12.31947,-12.319507 c 1.53444,-1.539325 1.53565,-4.005928 0,-5.54156 L 107.85762,1.5185896 c -1.53566,-1.53562962 -4.00718,-1.5344033 -5.54157,0 z"
       style="fill:#aaaaff;fill-opacity:1;fill-rule:nonzero;stroke:#001b7e;stroke-width:0.740778;stroke-linecap:round;stroke-linejoin:round;stroke-miterlimit:4;stroke-dasharray:none;stroke-opacity:1" />
    <path
       id="path155"
       d="m 90.713268,16.473413 c 0,-1.034426 0.836136,-1.871821 1.870583,-1.871821 1.034414,0 1.871814,0.837395 1.871814,1.871821 0,1.034424 -0.8374,1.870579 -1.871814,1.870579 -1.034447,0 -1.870583,-0.836155 -1.870583,-1.870579 z"
       style="fill:#000000;fill-opacity:1;fill-rule:nonzero;stroke:#000000;stroke-width:1.04388;stroke-linecap:butt;stroke-linejoin:miter;stroke-miterlimit:10;stroke-dasharray:none;stroke-opacity:1" />
    <path
       id="path156"
       d="m 103.13866,4.0479979 c 0,-1.0344239 0.83616,-1.8705792 1.87058,-1.8705792 1.03444,0 1.87184,0.8361553 1.87184,1.8705792 0,1.0344231 -0.8374,1.8718177 -1.87184,1.8718177 -1.03442,0 -1.87058,-0.8373946 -1.87058,-1.8718177 z"
       style="fill:#000000;fill-opacity:1;fill-rule:nonzero;stroke:#000000;stroke-width:1.04388;stroke-linecap:butt;stroke-linejoin:miter;stroke-miterlimit:10;stroke-dasharray:none;stroke-opacity:1" />
    <path
       id="path157"
       d="m 115.56284,16.473413 c 0,-1.034426 0.8374,-1.871821 1.87181,-1.871821 1.03441,0 1.87181,0.837395 1.87181,1.871821 0,1.034424 -0.8374,1.870579 -1.87181,1.870579 -1.03441,0 -1.87181,-0.836155 -1.87181,-1.870579 z"
       style="fill:#000000;fill-opacity:1;fill-rule:nonzero;stroke:#000000;stroke-width:1.04388;stroke-linecap:butt;stroke-linejoin:miter;stroke-miterlimit:10;stroke-dasharray:none;stroke-opacity:1" />
    <path
       id="path158"
       d="m 103.13866,28.898815 c 0,-1.034423 0.83616,-1.871818 1.87058,-1.871818 1.03444,0 1.87184,0.837395 1.87184,1.871818 0,1.034427 -0.8374,1.870582 -1.87184,1.870582 -1.03442,0 -1.87058,-0.836155 -1.87058,-1.870582 z"
       style="fill:#000000;fill-opacity:1;fill-rule:nonzero;stroke:#000000;stroke-width:1.04388;stroke-linecap:butt;stroke-linejoin:miter;stroke-miterlimit:10;stroke-dasharray:none;stroke-opacity:1" />
    <path
       id="path159"
       d="M 117.43465,16.473413 105.00924,28.898815"
       style="fill:none;stroke:#000000;stroke-width:1.04388;stroke-linecap:butt;stroke-linejoin:miter;stroke-miterlimit:10;stroke-dasharray:none;stroke-opacity:1" />
    <path
       id="path160"
       d="M 105.00924,28.898815 92.583851,16.473413"
       style="fill:none;stroke:#000000;stroke-width:1.04388;stroke-linecap:butt;stroke-linejoin:miter;stroke-miterlimit:10;stroke-dasharray:none;stroke-opacity:1" />
    <path
       id="path161"
       d="M 92.583851,16.473413 105.00924,4.0479979"
       style="fill:none;stroke:#000000;stroke-width:1.04388;stroke-linecap:butt;stroke-linejoin:miter;stroke-miterlimit:10;stroke-dasharray:none;stroke-opacity:1" />
    <path
       id="path162"
       d="M 117.43465,16.473413 105.00924,4.0479979"
       style="fill:none;stroke:#000000;stroke-width:1.04388;stroke-linecap:butt;stroke-linejoin:miter;stroke-miterlimit:10;stroke-dasharray:none;stroke-opacity:1" />
    <path
       id="path163"
       d="m 181.28818,149.55703 c 0,-6.89247 5.58468,-12.47834 12.47715,-12.47834 6.88877,0 12.47838,5.58587 12.47838,12.47834 0,6.88878 -5.58961,12.47344 -12.47838,12.47344 -6.89247,0 -12.47715,-5.58466 -12.47715,-12.47344 z"
       style="fill:none;stroke:#000000;stroke-width:1.04388;stroke-linecap:butt;stroke-linejoin:miter;stroke-miterlimit:10;stroke-dasharray:none;stroke-opacity:1" />
    <path
       id="path164"
       d="m 178.83391,151.9436 12.75295,12.75297 c 1.35091,1.35092 3.53062,1.35092 4.88768,-8.1e-4 1.35092,-1.3509 1.35092,-3.53059 0,-4.88642 l -12.75791,-12.75336 c -1.35215,-1.35215 -3.53058,-1.35092 -4.8815,0 -1.35706,1.35213 -1.35706,3.53182 -0.001,4.88765 z"
       style="fill:#aaaaff;fill-opacity:1;fill-rule:nonzero;stroke:#001b7e;stroke-width:0.740039;stroke-linecap:round;stroke-linejoin:round;stroke-miterlimit:4;stroke-dasharray:none;stroke-opacity:1" />
    <path
       id="path165"
       d="m 191.88982,161.98245 c 0,-1.03444 0.84233,-1.87552 1.87551,-1.87552 1.02948,0 1.87181,0.84108 1.87181,1.87552 0,1.03442 -0.84233,1.87181 -1.87181,1.87181 -1.03318,0 -1.87551,-0.83739 -1.87551,-1.87181 z"
       style="fill:#000000;fill-opacity:1;fill-rule:nonzero;stroke:#000000;stroke-width:1.04388;stroke-linecap:butt;stroke-linejoin:miter;stroke-miterlimit:10;stroke-dasharray:none;stroke-opacity:1" />
    <path
       id="path166"
       d="m 193.76533,161.98245 -12.4242,-12.42542"
       style="fill:none;stroke:#000000;stroke-width:1.04388;stroke-linecap:butt;stroke-linejoin:miter;stroke-miterlimit:10;stroke-dasharray:none;stroke-opacity:1" />
    <path
       id="path167"
       d="m 202.72786,149.61491 c 0,1.91 1.54427,3.45424 3.44934,3.45424 1.90874,0 3.45298,-1.54424 3.45298,-3.45424 0,-1.90506 -1.54424,-3.45424 -3.45298,-3.45424 -1.90507,0 -3.44934,1.54918 -3.44934,3.45424 z"
       style="fill:#aaaaff;fill-opacity:1;fill-rule:nonzero;stroke:#001b7e;stroke-width:0.739647;stroke-linecap:round;stroke-linejoin:miter;stroke-miterlimit:4;stroke-dasharray:none;stroke-opacity:1" />
    <path
       id="path168"
       d="m 190.30248,137.18951 c 0,1.90507 1.54423,3.45424 3.45422,3.45424 1.90383,0 3.45302,-1.54917 3.45302,-3.45424 0,-1.90999 -1.54919,-3.45301 -3.45302,-3.45301 -1.90999,0 -3.45422,1.54302 -3.45422,3.45301 z"
       style="fill:#aaaaff;fill-opacity:1;fill-rule:nonzero;stroke:#001b7e;stroke-width:0.739647;stroke-linecap:round;stroke-linejoin:miter;stroke-miterlimit:4;stroke-dasharray:none;stroke-opacity:1" />
    <path
       id="path169"
       d="m 191.89475,137.1267 c 0,-1.02827 0.8374,-1.87058 1.87058,-1.87058 1.03441,0 1.87181,0.84231 1.87181,1.87058 0,1.03443 -0.8374,1.87674 -1.87181,1.87674 -1.03318,0 -1.87058,-0.84231 -1.87058,-1.87674 z"
       style="fill:#000000;fill-opacity:1;fill-rule:nonzero;stroke:#000000;stroke-width:1.04388;stroke-linecap:butt;stroke-linejoin:miter;stroke-miterlimit:10;stroke-dasharray:none;stroke-opacity:1" />
    <path
       id="path170"
       d="m 204.32016,149.55703 c 0,-1.03441 0.83614,-1.87551 1.86562,-1.87551 1.03938,0 1.87678,0.8411 1.87678,1.87551 0,1.02951 -0.8374,1.87182 -1.87678,1.87182 -1.02948,0 -1.86562,-0.84231 -1.86562,-1.87182 z"
       style="fill:#000000;fill-opacity:1;fill-rule:nonzero;stroke:#000000;stroke-width:1.04388;stroke-linecap:butt;stroke-linejoin:miter;stroke-miterlimit:10;stroke-dasharray:none;stroke-opacity:1" />
    <path
       id="path171"
       d="m 179.46933,149.55703 c 0,-1.03441 0.8374,-1.87551 1.8718,-1.87551 1.0332,0 1.8706,0.8411 1.8706,1.87551 0,1.02951 -0.8374,1.87182 -1.8706,1.87182 -1.0344,0 -1.8718,-0.84231 -1.8718,-1.87182 z"
       style="fill:#000000;fill-opacity:1;fill-rule:nonzero;stroke:#000000;stroke-width:1.04388;stroke-linecap:butt;stroke-linejoin:miter;stroke-miterlimit:10;stroke-dasharray:none;stroke-opacity:1" />
    <path
       id="path172"
       d="m 108.4635,149.55703 c 0,-1.03441 0.83735,-1.87551 1.87055,-1.87551 1.03445,0 1.87185,0.8411 1.87185,1.87551 0,1.02951 -0.8374,1.87182 -1.87185,1.87182 -1.0332,0 -1.87055,-0.84231 -1.87055,-1.87182 z"
       style="fill:#000000;fill-opacity:1;fill-rule:nonzero;stroke:#000000;stroke-width:1.04388;stroke-linecap:butt;stroke-linejoin:miter;stroke-miterlimit:10;stroke-dasharray:none;stroke-opacity:1" />
    <path
       id="path173"
       d="m 103.13866,4.0479979 c 0,-1.0344239 0.83616,-1.8705792 1.87058,-1.8705792 1.03444,0 1.87184,0.8361553 1.87184,1.8705792 0,1.0344231 -0.8374,1.8718177 -1.87184,1.8718177 -1.03442,0 -1.87058,-0.8373946 -1.87058,-1.8718177 z"
       style="fill:#000000;fill-opacity:1;fill-rule:nonzero;stroke:#000000;stroke-width:1.04388;stroke-linecap:butt;stroke-linejoin:miter;stroke-miterlimit:10;stroke-dasharray:none;stroke-opacity:1" />
    <rect
       style="opacity:1;fill:url(#linearGradient10);stroke:none;stroke-width:2;stroke-linecap:round;stroke-opacity:1"
       id="rect1"
       width="210"
       height="140.38499"
       x="0"
       y="-216.88765"
       rx="2.1166666"
       ry="0.28572711"
       transform="scale(1,-1)" />
  </g>
</svg>
