<?xml version="1.0" encoding="UTF-8" standalone="no"?>
<!-- Created with Inkscape (http://www.inkscape.org/) -->

<svg
   version="1.1"
   id="svg1"
   width="1152"
   height="384"
   viewBox="0 0 1152 384"
   sodipodi:docname="mb_cages.pdf"
   xmlns:inkscape="http://www.inkscape.org/namespaces/inkscape"
   xmlns:sodipodi="http://sodipodi.sourceforge.net/DTD/sodipodi-0.dtd"
   xmlns="http://www.w3.org/2000/svg"
   xmlns:svg="http://www.w3.org/2000/svg">
  <defs
     id="defs1">
    <clipPath
       clipPathUnits="userSpaceOnUse"
       id="clipPath3">
      <path
         d="M 17.28,18.327273 H 394.29818 V 269.67273 H 17.28 Z"
         id="path3" />
    </clipPath>
    <clipPath
       clipPathUnits="userSpaceOnUse"
       id="clipPath5">
      <path
         d="M 17.28,18.327273 H 394.29818 V 269.67273 H 17.28 Z"
         id="path5" />
    </clipPath>
    <clipPath
       clipPathUnits="userSpaceOnUse"
       id="clipPath7">
      <path
         d="M 17.28,18.327273 H 394.29818 V 269.67273 H 17.28 Z"
         id="path7" />
    </clipPath>
    <clipPath
       clipPathUnits="userSpaceOnUse"
       id="clipPath9">
      <path
         d="M 17.28,18.327273 H 394.29818 V 269.67273 H 17.28 Z"
         id="path9" />
    </clipPath>
    <clipPath
       clipPathUnits="userSpaceOnUse"
       id="clipPath11">
      <path
         d="M 17.28,18.327273 H 394.29818 V 269.67273 H 17.28 Z"
         id="path11" />
    </clipPath>
    <clipPath
       clipPathUnits="userSpaceOnUse"
       id="clipPath13">
      <path
         d="M 17.28,18.327273 H 394.29818 V 269.67273 H 17.28 Z"
         id="path13" />
    </clipPath>
    <clipPath
       clipPathUnits="userSpaceOnUse"
       id="clipPath15">
      <path
         d="M 17.28,18.327273 H 394.29818 V 269.67273 H 17.28 Z"
         id="path15" />
    </clipPath>
    <clipPath
       clipPathUnits="userSpaceOnUse"
       id="clipPath17">
      <path
         d="M 17.28,18.327273 H 394.29818 V 269.67273 H 17.28 Z"
         id="path17" />
    </clipPath>
    <clipPath
       clipPathUnits="userSpaceOnUse"
       id="clipPath19">
      <path
         d="M 17.28,18.327273 H 394.29818 V 269.67273 H 17.28 Z"
         id="path19" />
    </clipPath>
    <clipPath
       clipPathUnits="userSpaceOnUse"
       id="clipPath21">
      <path
         d="M 17.28,18.327273 H 394.29818 V 269.67273 H 17.28 Z"
         id="path21" />
    </clipPath>
    <clipPath
       clipPathUnits="userSpaceOnUse"
       id="clipPath23">
      <path
         d="M 17.28,18.327273 H 394.29818 V 269.67273 H 17.28 Z"
         id="path23" />
    </clipPath>
    <clipPath
       clipPathUnits="userSpaceOnUse"
       id="clipPath25">
      <path
         d="M 17.28,18.327273 H 394.29818 V 269.67273 H 17.28 Z"
         id="path25" />
    </clipPath>
    <clipPath
       clipPathUnits="userSpaceOnUse"
       id="clipPath27">
      <path
         d="M 17.28,18.327273 H 394.29818 V 269.67273 H 17.28 Z"
         id="path27" />
    </clipPath>
    <clipPath
       clipPathUnits="userSpaceOnUse"
       id="clipPath29">
      <path
         d="M 17.28,18.327273 H 394.29818 V 269.67273 H 17.28 Z"
         id="path29" />
    </clipPath>
    <clipPath
       clipPathUnits="userSpaceOnUse"
       id="clipPath33">
      <path
         d="M 17.28,18.327273 H 394.29818 V 269.67273 H 17.28 Z"
         id="path33" />
    </clipPath>
    <clipPath
       clipPathUnits="userSpaceOnUse"
       id="clipPath35">
      <path
         d="M 17.28,18.327273 H 394.29818 V 269.67273 H 17.28 Z"
         id="path35" />
    </clipPath>
    <clipPath
       clipPathUnits="userSpaceOnUse"
       id="clipPath37">
      <path
         d="M 17.28,18.327273 H 394.29818 V 269.67273 H 17.28 Z"
         id="path37" />
    </clipPath>
    <clipPath
       clipPathUnits="userSpaceOnUse"
       id="clipPath39">
      <path
         d="M 17.28,18.327273 H 394.29818 V 269.67273 H 17.28 Z"
         id="path39" />
    </clipPath>
    <clipPath
       clipPathUnits="userSpaceOnUse"
       id="clipPath41">
      <path
         d="M 17.28,18.327273 H 394.29818 V 269.67273 H 17.28 Z"
         id="path41" />
    </clipPath>
    <clipPath
       clipPathUnits="userSpaceOnUse"
       id="clipPath43">
      <path
         d="M 17.28,18.327273 H 394.29818 V 269.67273 H 17.28 Z"
         id="path43" />
    </clipPath>
    <clipPath
       clipPathUnits="userSpaceOnUse"
       id="clipPath45">
      <path
         d="M 17.28,18.327273 H 394.29818 V 269.67273 H 17.28 Z"
         id="path45" />
    </clipPath>
    <clipPath
       clipPathUnits="userSpaceOnUse"
       id="clipPath47">
      <path
         d="M 17.28,18.327273 H 394.29818 V 269.67273 H 17.28 Z"
         id="path47" />
    </clipPath>
    <clipPath
       clipPathUnits="userSpaceOnUse"
       id="clipPath49">
      <path
         d="M 17.28,18.327273 H 394.29818 V 269.67273 H 17.28 Z"
         id="path49" />
    </clipPath>
    <clipPath
       clipPathUnits="userSpaceOnUse"
       id="clipPath51">
      <path
         d="M 17.28,18.327273 H 394.29818 V 269.67273 H 17.28 Z"
         id="path51" />
    </clipPath>
    <clipPath
       clipPathUnits="userSpaceOnUse"
       id="clipPath53">
      <path
         d="M 17.28,18.327273 H 394.29818 V 269.67273 H 17.28 Z"
         id="path53" />
    </clipPath>
    <clipPath
       clipPathUnits="userSpaceOnUse"
       id="clipPath55">
      <path
         d="M 17.28,18.327273 H 394.29818 V 269.67273 H 17.28 Z"
         id="path55" />
    </clipPath>
    <clipPath
       clipPathUnits="userSpaceOnUse"
       id="clipPath57">
      <path
         d="M 17.28,18.327273 H 394.29818 V 269.67273 H 17.28 Z"
         id="path57" />
    </clipPath>
    <clipPath
       clipPathUnits="userSpaceOnUse"
       id="clipPath59">
      <path
         d="M 17.28,18.327273 H 394.29818 V 269.67273 H 17.28 Z"
         id="path59" />
    </clipPath>
    <clipPath
       clipPathUnits="userSpaceOnUse"
       id="clipPath61">
      <path
         d="M 17.28,18.327273 H 394.29818 V 269.67273 H 17.28 Z"
         id="path61" />
    </clipPath>
    <clipPath
       clipPathUnits="userSpaceOnUse"
       id="clipPath63">
      <path
         d="M 17.28,18.327273 H 394.29818 V 269.67273 H 17.28 Z"
         id="path63" />
    </clipPath>
    <clipPath
       clipPathUnits="userSpaceOnUse"
       id="clipPath65">
      <path
         d="M 17.28,18.327273 H 394.29818 V 269.67273 H 17.28 Z"
         id="path65" />
    </clipPath>
    <clipPath
       clipPathUnits="userSpaceOnUse"
       id="clipPath67">
      <path
         d="M 17.28,18.327273 H 394.29818 V 269.67273 H 17.28 Z"
         id="path67" />
    </clipPath>
    <clipPath
       clipPathUnits="userSpaceOnUse"
       id="clipPath69">
      <path
         d="M 17.28,18.327273 H 394.29818 V 269.67273 H 17.28 Z"
         id="path69" />
    </clipPath>
    <clipPath
       clipPathUnits="userSpaceOnUse"
       id="clipPath71">
      <path
         d="M 17.28,18.327273 H 394.29818 V 269.67273 H 17.28 Z"
         id="path71" />
    </clipPath>
    <clipPath
       clipPathUnits="userSpaceOnUse"
       id="clipPath73">
      <path
         d="M 17.28,18.327273 H 394.29818 V 269.67273 H 17.28 Z"
         id="path73" />
    </clipPath>
    <clipPath
       clipPathUnits="userSpaceOnUse"
       id="clipPath75">
      <path
         d="M 17.28,18.327273 H 394.29818 V 269.67273 H 17.28 Z"
         id="path75" />
    </clipPath>
    <clipPath
       clipPathUnits="userSpaceOnUse"
       id="clipPath77">
      <path
         d="M 17.28,18.327273 H 394.29818 V 269.67273 H 17.28 Z"
         id="path77" />
    </clipPath>
    <clipPath
       clipPathUnits="userSpaceOnUse"
       id="clipPath79">
      <path
         d="M 17.28,18.327273 H 394.29818 V 269.67273 H 17.28 Z"
         id="path79" />
    </clipPath>
    <clipPath
       clipPathUnits="userSpaceOnUse"
       id="clipPath81">
      <path
         d="M 469.70182,18.327273 H 846.72 V 269.67273 H 469.70182 Z"
         id="path81" />
    </clipPath>
    <clipPath
       clipPathUnits="userSpaceOnUse"
       id="clipPath83">
      <path
         d="M 469.70182,18.327273 H 846.72 V 269.67273 H 469.70182 Z"
         id="path83" />
    </clipPath>
    <clipPath
       clipPathUnits="userSpaceOnUse"
       id="clipPath85">
      <path
         d="M 469.70182,18.327273 H 846.72 V 269.67273 H 469.70182 Z"
         id="path85" />
    </clipPath>
    <clipPath
       clipPathUnits="userSpaceOnUse"
       id="clipPath87">
      <path
         d="M 469.70182,18.327273 H 846.72 V 269.67273 H 469.70182 Z"
         id="path87" />
    </clipPath>
    <clipPath
       clipPathUnits="userSpaceOnUse"
       id="clipPath89">
      <path
         d="M 469.70182,18.327273 H 846.72 V 269.67273 H 469.70182 Z"
         id="path89" />
    </clipPath>
    <clipPath
       clipPathUnits="userSpaceOnUse"
       id="clipPath91">
      <path
         d="M 469.70182,18.327273 H 846.72 V 269.67273 H 469.70182 Z"
         id="path91" />
    </clipPath>
    <clipPath
       clipPathUnits="userSpaceOnUse"
       id="clipPath93">
      <path
         d="M 469.70182,18.327273 H 846.72 V 269.67273 H 469.70182 Z"
         id="path93" />
    </clipPath>
    <clipPath
       clipPathUnits="userSpaceOnUse"
       id="clipPath95">
      <path
         d="M 469.70182,18.327273 H 846.72 V 269.67273 H 469.70182 Z"
         id="path95" />
    </clipPath>
    <clipPath
       clipPathUnits="userSpaceOnUse"
       id="clipPath97">
      <path
         d="M 469.70182,18.327273 H 846.72 V 269.67273 H 469.70182 Z"
         id="path97" />
    </clipPath>
    <clipPath
       clipPathUnits="userSpaceOnUse"
       id="clipPath99">
      <path
         d="M 469.70182,18.327273 H 846.72 V 269.67273 H 469.70182 Z"
         id="path99" />
    </clipPath>
    <clipPath
       clipPathUnits="userSpaceOnUse"
       id="clipPath101">
      <path
         d="M 469.70182,18.327273 H 846.72 V 269.67273 H 469.70182 Z"
         id="path101" />
    </clipPath>
    <clipPath
       clipPathUnits="userSpaceOnUse"
       id="clipPath103">
      <path
         d="M 469.70182,18.327273 H 846.72 V 269.67273 H 469.70182 Z"
         id="path103" />
    </clipPath>
    <clipPath
       clipPathUnits="userSpaceOnUse"
       id="clipPath105">
      <path
         d="M 469.70182,18.327273 H 846.72 V 269.67273 H 469.70182 Z"
         id="path105" />
    </clipPath>
    <clipPath
       clipPathUnits="userSpaceOnUse"
       id="clipPath107">
      <path
         d="M 469.70182,18.327273 H 846.72 V 269.67273 H 469.70182 Z"
         id="path107" />
    </clipPath>
    <clipPath
       clipPathUnits="userSpaceOnUse"
       id="clipPath109">
      <path
         d="M 469.70182,18.327273 H 846.72 V 269.67273 H 469.70182 Z"
         id="path109" />
    </clipPath>
    <clipPath
       clipPathUnits="userSpaceOnUse"
       id="clipPath111">
      <path
         d="M 469.70182,18.327273 H 846.72 V 269.67273 H 469.70182 Z"
         id="path111" />
    </clipPath>
    <clipPath
       clipPathUnits="userSpaceOnUse"
       id="clipPath115">
      <path
         d="M 469.70182,18.327273 H 846.72 V 269.67273 H 469.70182 Z"
         id="path115" />
    </clipPath>
    <clipPath
       clipPathUnits="userSpaceOnUse"
       id="clipPath117">
      <path
         d="M 469.70182,18.327273 H 846.72 V 269.67273 H 469.70182 Z"
         id="path117" />
    </clipPath>
    <clipPath
       clipPathUnits="userSpaceOnUse"
       id="clipPath119">
      <path
         d="M 469.70182,18.327273 H 846.72 V 269.67273 H 469.70182 Z"
         id="path119" />
    </clipPath>
    <clipPath
       clipPathUnits="userSpaceOnUse"
       id="clipPath121">
      <path
         d="M 469.70182,18.327273 H 846.72 V 269.67273 H 469.70182 Z"
         id="path121" />
    </clipPath>
    <clipPath
       clipPathUnits="userSpaceOnUse"
       id="clipPath123">
      <path
         d="M 469.70182,18.327273 H 846.72 V 269.67273 H 469.70182 Z"
         id="path123" />
    </clipPath>
    <clipPath
       clipPathUnits="userSpaceOnUse"
       id="clipPath125">
      <path
         d="M 469.70182,18.327273 H 846.72 V 269.67273 H 469.70182 Z"
         id="path125" />
    </clipPath>
    <clipPath
       clipPathUnits="userSpaceOnUse"
       id="clipPath127">
      <path
         d="M 469.70182,18.327273 H 846.72 V 269.67273 H 469.70182 Z"
         id="path127" />
    </clipPath>
    <clipPath
       clipPathUnits="userSpaceOnUse"
       id="clipPath129">
      <path
         d="M 469.70182,18.327273 H 846.72 V 269.67273 H 469.70182 Z"
         id="path129" />
    </clipPath>
    <clipPath
       clipPathUnits="userSpaceOnUse"
       id="clipPath131">
      <path
         d="M 469.70182,18.327273 H 846.72 V 269.67273 H 469.70182 Z"
         id="path131" />
    </clipPath>
    <clipPath
       clipPathUnits="userSpaceOnUse"
       id="clipPath133">
      <path
         d="M 469.70182,18.327273 H 846.72 V 269.67273 H 469.70182 Z"
         id="path133" />
    </clipPath>
    <clipPath
       clipPathUnits="userSpaceOnUse"
       id="clipPath135">
      <path
         d="M 469.70182,18.327273 H 846.72 V 269.67273 H 469.70182 Z"
         id="path135" />
    </clipPath>
    <clipPath
       clipPathUnits="userSpaceOnUse"
       id="clipPath137">
      <path
         d="M 469.70182,18.327273 H 846.72 V 269.67273 H 469.70182 Z"
         id="path137" />
    </clipPath>
    <clipPath
       clipPathUnits="userSpaceOnUse"
       id="clipPath139">
      <path
         d="M 469.70182,18.327273 H 846.72 V 269.67273 H 469.70182 Z"
         id="path139" />
    </clipPath>
    <clipPath
       clipPathUnits="userSpaceOnUse"
       id="clipPath141">
      <path
         d="M 469.70182,18.327273 H 846.72 V 269.67273 H 469.70182 Z"
         id="path141" />
    </clipPath>
    <clipPath
       clipPathUnits="userSpaceOnUse"
       id="clipPath143">
      <path
         d="M 469.70182,18.327273 H 846.72 V 269.67273 H 469.70182 Z"
         id="path143" />
    </clipPath>
    <clipPath
       clipPathUnits="userSpaceOnUse"
       id="clipPath145">
      <path
         d="M 469.70182,18.327273 H 846.72 V 269.67273 H 469.70182 Z"
         id="path145" />
    </clipPath>
    <clipPath
       clipPathUnits="userSpaceOnUse"
       id="clipPath147">
      <path
         d="M 469.70182,18.327273 H 846.72 V 269.67273 H 469.70182 Z"
         id="path147" />
    </clipPath>
    <clipPath
       clipPathUnits="userSpaceOnUse"
       id="clipPath149">
      <path
         d="M 469.70182,18.327273 H 846.72 V 269.67273 H 469.70182 Z"
         id="path149" />
    </clipPath>
    <clipPath
       clipPathUnits="userSpaceOnUse"
       id="clipPath151">
      <path
         d="M 469.70182,18.327273 H 846.72 V 269.67273 H 469.70182 Z"
         id="path151" />
    </clipPath>
    <clipPath
       clipPathUnits="userSpaceOnUse"
       id="clipPath153">
      <path
         d="M 469.70182,18.327273 H 846.72 V 269.67273 H 469.70182 Z"
         id="path153" />
    </clipPath>
    <clipPath
       clipPathUnits="userSpaceOnUse"
       id="clipPath155">
      <path
         d="M 469.70182,18.327273 H 846.72 V 269.67273 H 469.70182 Z"
         id="path155" />
    </clipPath>
    <clipPath
       clipPathUnits="userSpaceOnUse"
       id="clipPath157">
      <path
         d="M 469.70182,18.327273 H 846.72 V 269.67273 H 469.70182 Z"
         id="path157" />
    </clipPath>
    <clipPath
       clipPathUnits="userSpaceOnUse"
       id="clipPath159">
      <path
         d="M 469.70182,18.327273 H 846.72 V 269.67273 H 469.70182 Z"
         id="path159" />
    </clipPath>
    <clipPath
       clipPathUnits="userSpaceOnUse"
       id="clipPath161">
      <path
         d="M 469.70182,18.327273 H 846.72 V 269.67273 H 469.70182 Z"
         id="path161" />
    </clipPath>
  </defs>
  <sodipodi:namedview
     id="namedview1"
     pagecolor="#ffffff"
     bordercolor="#666666"
     borderopacity="1.0"
     inkscape:showpageshadow="2"
     inkscape:pageopacity="0.0"
     inkscape:pagecheckerboard="0"
     inkscape:deskcolor="#d1d1d1"
     inkscape:zoom="1.2248264"
     inkscape:cx="576"
     inkscape:cy="191.86393"
     inkscape:window-width="2494"
     inkscape:window-height="1371"
     inkscape:window-x="0"
     inkscape:window-y="0"
     inkscape:window-maximized="1"
     inkscape:current-layer="g1">
    <inkscape:page
       x="0"
       y="0"
       inkscape:label="1"
       id="page1"
       width="1152"
       height="384"
       margin="0"
       bleed="0"
       inkscape:export-filename="mb_cages.svg"
       inkscape:export-xdpi="96"
       inkscape:export-ydpi="96" />
  </sodipodi:namedview>
  <g
     id="g1"
     inkscape:groupmode="layer"
     inkscape:label="1">
    <path
       id="path1"
       d="M 0,0 H 864 V 288 H 0 Z"
       style="fill:#ffffff;fill-opacity:1;fill-rule:nonzero;stroke:none"
       transform="matrix(1.3333333,0,0,-1.3333333,0,384)" />
    <path
       id="path2"
       d="M 48.698182,49.745455 V 238.25454"
       style="fill:none;stroke:#a9a9a9;stroke-width:1.5;stroke-linecap:square;stroke-linejoin:round;stroke-miterlimit:10;stroke-dasharray:none;stroke-opacity:0.3"
       transform="matrix(1.3333333,0,0,-1.3333333,0,384)"
       clip-path="url(#clipPath3)" />
    <path
       id="path4"
       d="M 111.53455,49.745455 V 238.25454"
       style="fill:none;stroke:#a9a9a9;stroke-width:1.5;stroke-linecap:square;stroke-linejoin:round;stroke-miterlimit:10;stroke-dasharray:none;stroke-opacity:0.3"
       transform="matrix(1.3333333,0,0,-1.3333333,0,384)"
       clip-path="url(#clipPath5)" />
    <path
       id="path6"
       d="M 174.37091,49.745455 V 238.25454"
       style="fill:none;stroke:#a9a9a9;stroke-width:1.5;stroke-linecap:square;stroke-linejoin:round;stroke-miterlimit:10;stroke-dasharray:none;stroke-opacity:0.3"
       transform="matrix(1.3333333,0,0,-1.3333333,0,384)"
       clip-path="url(#clipPath7)" />
    <path
       id="path8"
       d="M 237.20727,49.745455 V 238.25454"
       style="fill:none;stroke:#a9a9a9;stroke-width:1.5;stroke-linecap:square;stroke-linejoin:round;stroke-miterlimit:10;stroke-dasharray:none;stroke-opacity:0.3"
       transform="matrix(1.3333333,0,0,-1.3333333,0,384)"
       clip-path="url(#clipPath9)" />
    <path
       id="path10"
       d="M 300.04364,49.745455 V 238.25454"
       style="fill:none;stroke:#a9a9a9;stroke-width:1.5;stroke-linecap:square;stroke-linejoin:round;stroke-miterlimit:10;stroke-dasharray:none;stroke-opacity:0.3"
       transform="matrix(1.3333333,0,0,-1.3333333,0,384)"
       clip-path="url(#clipPath11)" />
    <path
       id="path12"
       d="M 362.88,49.745455 V 238.25454"
       style="fill:none;stroke:#a9a9a9;stroke-width:1.5;stroke-linecap:square;stroke-linejoin:round;stroke-miterlimit:10;stroke-dasharray:none;stroke-opacity:0.3"
       transform="matrix(1.3333333,0,0,-1.3333333,0,384)"
       clip-path="url(#clipPath13)" />
    <path
       id="path14"
       d="M 48.698182,49.745455 H 362.88"
       style="fill:none;stroke:#a9a9a9;stroke-width:1.5;stroke-linecap:square;stroke-linejoin:round;stroke-miterlimit:10;stroke-dasharray:none;stroke-opacity:0.3"
       transform="matrix(1.3333333,0,0,-1.3333333,0,384)"
       clip-path="url(#clipPath15)" />
    <path
       id="path16"
       d="M 48.698182,112.58182 H 362.88"
       style="fill:none;stroke:#a9a9a9;stroke-width:1.5;stroke-linecap:square;stroke-linejoin:round;stroke-miterlimit:10;stroke-dasharray:none;stroke-opacity:0.3"
       transform="matrix(1.3333333,0,0,-1.3333333,0,384)"
       clip-path="url(#clipPath17)" />
    <path
       id="path18"
       d="M 48.698182,175.41818 H 362.88"
       style="fill:none;stroke:#a9a9a9;stroke-width:1.5;stroke-linecap:square;stroke-linejoin:round;stroke-miterlimit:10;stroke-dasharray:none;stroke-opacity:0.3"
       transform="matrix(1.3333333,0,0,-1.3333333,0,384)"
       clip-path="url(#clipPath19)" />
    <path
       id="path20"
       d="M 48.698182,238.25454 H 362.88"
       style="fill:none;stroke:#a9a9a9;stroke-width:1.5;stroke-linecap:square;stroke-linejoin:round;stroke-miterlimit:10;stroke-dasharray:none;stroke-opacity:0.3"
       transform="matrix(1.3333333,0,0,-1.3333333,0,384)"
       clip-path="url(#clipPath21)" />
    <path
       id="path22"
       d="M 48.698182,49.745455 H 362.88"
       style="fill:none;stroke:#450693;stroke-width:5;stroke-linecap:square;stroke-linejoin:round;stroke-miterlimit:10;stroke-dasharray:none;stroke-opacity:0.9"
       transform="matrix(1.3333333,0,0,-1.3333333,0,384)"
       clip-path="url(#clipPath23)" />
    <path
       id="path24"
       d="M 48.698182,112.58182 H 362.88"
       style="fill:none;stroke:#450693;stroke-width:5;stroke-linecap:square;stroke-linejoin:round;stroke-miterlimit:10;stroke-dasharray:none;stroke-opacity:0.9"
       transform="matrix(1.3333333,0,0,-1.3333333,0,384)"
       clip-path="url(#clipPath25)" />
    <path
       id="path26"
       d="M 48.698182,175.41818 H 362.88"
       style="fill:none;stroke:#450693;stroke-width:5;stroke-linecap:square;stroke-linejoin:round;stroke-miterlimit:10;stroke-dasharray:none;stroke-opacity:0.9"
       transform="matrix(1.3333333,0,0,-1.3333333,0,384)"
       clip-path="url(#clipPath27)" />
    <path
       id="path28"
       d="M 48.698182,238.25454 H 362.88"
       style="fill:none;stroke:#450693;stroke-width:5;stroke-linecap:square;stroke-linejoin:round;stroke-miterlimit:10;stroke-dasharray:none;stroke-opacity:0.9"
       transform="matrix(1.3333333,0,0,-1.3333333,0,384)"
       clip-path="url(#clipPath29)" />
    <path
       id="path30"
       d="m 36.130909,246.7065 c 2.757835,0 5.403086,1.0957 7.35317,3.04578 1.950083,1.95009 3.045783,4.59534 3.045783,7.35317 0,2.75784 -1.0957,5.40309 -3.045783,7.35317 -1.950084,1.95009 -4.595335,3.04579 -7.35317,3.04579 -2.757834,0 -5.403086,-1.0957 -7.35317,-3.04579 -1.950083,-1.95008 -3.045782,-4.59533 -3.045782,-7.35317 0,-2.75783 1.095699,-5.40308 3.045782,-7.35317 1.950084,-1.95008 4.595336,-3.04578 7.35317,-3.04578 z"
       style="fill:#ffffff;fill-opacity:1;fill-rule:nonzero;stroke:#000000;stroke-width:1;stroke-linecap:butt;stroke-linejoin:miter;stroke-miterlimit:10;stroke-dasharray:none;stroke-opacity:1"
       transform="matrix(1.3333333,0,0,-1.3333333,0,384)" />
    <path
       id="path31"
       d="m 10.254481,-8.9635007 h 1.476562 V -9.561157 c -0.410156,0.023437 -1.8984373,0.023437 -2.4023435,0.023437 -0.5039063,0 -1.9921875,0 -2.4023438,-0.023437 v 0.5976563 H 8.414637 v 3.6914062 H 3.8443245 V -8.9635007 H 5.3326057 V -9.561157 C 4.9224495,-9.53772 3.4341682,-9.53772 2.930262,-9.53772 c -0.5039063,0 -1.99218753,0 -2.40234378,-0.023437 v 0.5976563 H 2.0044807 v 8.36718746 H 0.52791822 v 0.59765625 c 0.41015625,-0.0234375 1.89843748,-0.0234375 2.40234378,-0.0234375 0.5039062,0 1.9921875,0 2.4023437,0.0234375 V -0.59631324 H 3.8443245 V -4.6744382 H 8.414637 v 4.07812496 H 6.9263557 v 0.59765625 c 0.4101563,-0.0234375 1.8984375,-0.0234375 2.4023438,-0.0234375 0.5039062,0 1.9921875,0 2.4023435,0.0234375 v -0.59765625 h -1.476562 z m 0,0"
       style="fill:#000000;fill-opacity:1;fill-rule:nonzero;stroke:none"
       aria-label="H"
       transform="matrix(1.3333333,0,0,1.3333333,39.995328,45.841959)" />
    <path
       id="path32"
       d="m 48.698182,45.745455 c 1.060812,0 2.078319,0.421465 2.828427,1.171572 0.750108,0.750108 1.171573,1.767615 1.171573,2.828428 0,1.060812 -0.421465,2.078319 -1.171573,2.828427 -0.750108,0.750107 -1.767615,1.171573 -2.828427,1.171573 -1.060813,0 -2.07832,-0.421466 -2.828427,-1.171573 -0.750108,-0.750108 -1.171573,-1.767615 -1.171573,-2.828427 0,-1.060813 0.421465,-2.07832 1.171573,-2.828428 0.750107,-0.750107 1.767614,-1.171572 2.828427,-1.171572 z"
       style="fill:#000000;fill-opacity:1;fill-rule:nonzero;stroke:#000000;stroke-width:1;stroke-linecap:butt;stroke-linejoin:round;stroke-miterlimit:10;stroke-dasharray:none;stroke-opacity:1"
       transform="matrix(1.3333333,0,0,-1.3333333,0,384)"
       clip-path="url(#clipPath33)" />
    <path
       id="path34"
       d="m 111.53455,45.745455 c 1.06081,0 2.07832,0.421465 2.82842,1.171572 0.75011,0.750108 1.17158,1.767615 1.17158,2.828428 0,1.060812 -0.42147,2.078319 -1.17158,2.828427 -0.7501,0.750107 -1.76761,1.171573 -2.82842,1.171573 -1.06082,0 -2.07832,-0.421466 -2.82843,-1.171573 -0.75011,-0.750108 -1.17157,-1.767615 -1.17157,-2.828427 0,-1.060813 0.42146,-2.07832 1.17157,-2.828428 0.75011,-0.750107 1.76761,-1.171572 2.82843,-1.171572 z"
       style="fill:#000000;fill-opacity:1;fill-rule:nonzero;stroke:#000000;stroke-width:1;stroke-linecap:butt;stroke-linejoin:round;stroke-miterlimit:10;stroke-dasharray:none;stroke-opacity:1"
       transform="matrix(1.3333333,0,0,-1.3333333,0,384)"
       clip-path="url(#clipPath35)" />
    <path
       id="path36"
       d="m 174.37091,45.745455 c 1.06081,0 2.07832,0.421465 2.82843,1.171572 0.7501,0.750108 1.17157,1.767615 1.17157,2.828428 0,1.060812 -0.42147,2.078319 -1.17157,2.828427 -0.75011,0.750107 -1.76762,1.171573 -2.82843,1.171573 -1.06081,0 -2.07832,-0.421466 -2.82843,-1.171573 -0.75011,-0.750108 -1.17157,-1.767615 -1.17157,-2.828427 0,-1.060813 0.42146,-2.07832 1.17157,-2.828428 0.75011,-0.750107 1.76762,-1.171572 2.82843,-1.171572 z"
       style="fill:#000000;fill-opacity:1;fill-rule:nonzero;stroke:#000000;stroke-width:1;stroke-linecap:butt;stroke-linejoin:round;stroke-miterlimit:10;stroke-dasharray:none;stroke-opacity:1"
       transform="matrix(1.3333333,0,0,-1.3333333,0,384)"
       clip-path="url(#clipPath37)" />
    <path
       id="path38"
       d="m 237.20727,45.745455 c 1.06081,0 2.07832,0.421465 2.82843,1.171572 0.75011,0.750108 1.17157,1.767615 1.17157,2.828428 0,1.060812 -0.42146,2.078319 -1.17157,2.828427 -0.75011,0.750107 -1.76762,1.171573 -2.82843,1.171573 -1.06081,0 -2.07832,-0.421466 -2.82842,-1.171573 -0.75011,-0.750108 -1.17158,-1.767615 -1.17158,-2.828427 0,-1.060813 0.42147,-2.07832 1.17158,-2.828428 0.7501,-0.750107 1.76761,-1.171572 2.82842,-1.171572 z"
       style="fill:#000000;fill-opacity:1;fill-rule:nonzero;stroke:#000000;stroke-width:1;stroke-linecap:butt;stroke-linejoin:round;stroke-miterlimit:10;stroke-dasharray:none;stroke-opacity:1"
       transform="matrix(1.3333333,0,0,-1.3333333,0,384)"
       clip-path="url(#clipPath39)" />
    <path
       id="path40"
       d="m 300.04364,45.745455 c 1.06081,0 2.07832,0.421465 2.82842,1.171572 0.75011,0.750108 1.17158,1.767615 1.17158,2.828428 0,1.060812 -0.42147,2.078319 -1.17158,2.828427 -0.7501,0.750107 -1.76761,1.171573 -2.82842,1.171573 -1.06082,0 -2.07832,-0.421466 -2.82843,-1.171573 -0.75011,-0.750108 -1.17157,-1.767615 -1.17157,-2.828427 0,-1.060813 0.42146,-2.07832 1.17157,-2.828428 0.75011,-0.750107 1.76761,-1.171572 2.82843,-1.171572 z"
       style="fill:#000000;fill-opacity:1;fill-rule:nonzero;stroke:#000000;stroke-width:1;stroke-linecap:butt;stroke-linejoin:round;stroke-miterlimit:10;stroke-dasharray:none;stroke-opacity:1"
       transform="matrix(1.3333333,0,0,-1.3333333,0,384)"
       clip-path="url(#clipPath41)" />
    <path
       id="path42"
       d="m 362.88,45.745455 c 1.06081,0 2.07832,0.421465 2.82843,1.171572 0.7501,0.750108 1.17157,1.767615 1.17157,2.828428 0,1.060812 -0.42147,2.078319 -1.17157,2.828427 -0.75011,0.750107 -1.76762,1.171573 -2.82843,1.171573 -1.06081,0 -2.07832,-0.421466 -2.82843,-1.171573 -0.75011,-0.750108 -1.17157,-1.767615 -1.17157,-2.828427 0,-1.060813 0.42146,-2.07832 1.17157,-2.828428 0.75011,-0.750107 1.76762,-1.171572 2.82843,-1.171572 z"
       style="fill:#000000;fill-opacity:1;fill-rule:nonzero;stroke:#000000;stroke-width:1;stroke-linecap:butt;stroke-linejoin:round;stroke-miterlimit:10;stroke-dasharray:none;stroke-opacity:1"
       transform="matrix(1.3333333,0,0,-1.3333333,0,384)"
       clip-path="url(#clipPath43)" />
    <path
       id="path44"
       d="m 48.698182,108.58182 c 1.060812,0 2.078319,0.42146 2.828427,1.17157 0.750108,0.75011 1.171573,1.76762 1.171573,2.82843 0,1.06081 -0.421465,2.07832 -1.171573,2.82843 -0.750108,0.7501 -1.767615,1.17157 -2.828427,1.17157 -1.060813,0 -2.07832,-0.42147 -2.828427,-1.17157 -0.750108,-0.75011 -1.171573,-1.76762 -1.171573,-2.82843 0,-1.06081 0.421465,-2.07832 1.171573,-2.82843 0.750107,-0.75011 1.767614,-1.17157 2.828427,-1.17157 z"
       style="fill:#000000;fill-opacity:1;fill-rule:nonzero;stroke:#000000;stroke-width:1;stroke-linecap:butt;stroke-linejoin:round;stroke-miterlimit:10;stroke-dasharray:none;stroke-opacity:1"
       transform="matrix(1.3333333,0,0,-1.3333333,0,384)"
       clip-path="url(#clipPath45)" />
    <path
       id="path46"
       d="m 111.53455,108.58182 c 1.06081,0 2.07832,0.42146 2.82842,1.17157 0.75011,0.75011 1.17158,1.76762 1.17158,2.82843 0,1.06081 -0.42147,2.07832 -1.17158,2.82843 -0.7501,0.7501 -1.76761,1.17157 -2.82842,1.17157 -1.06082,0 -2.07832,-0.42147 -2.82843,-1.17157 -0.75011,-0.75011 -1.17157,-1.76762 -1.17157,-2.82843 0,-1.06081 0.42146,-2.07832 1.17157,-2.82843 0.75011,-0.75011 1.76761,-1.17157 2.82843,-1.17157 z"
       style="fill:#000000;fill-opacity:1;fill-rule:nonzero;stroke:#000000;stroke-width:1;stroke-linecap:butt;stroke-linejoin:round;stroke-miterlimit:10;stroke-dasharray:none;stroke-opacity:1"
       transform="matrix(1.3333333,0,0,-1.3333333,0,384)"
       clip-path="url(#clipPath47)" />
    <path
       id="path48"
       d="m 174.37091,108.58182 c 1.06081,0 2.07832,0.42146 2.82843,1.17157 0.7501,0.75011 1.17157,1.76762 1.17157,2.82843 0,1.06081 -0.42147,2.07832 -1.17157,2.82843 -0.75011,0.7501 -1.76762,1.17157 -2.82843,1.17157 -1.06081,0 -2.07832,-0.42147 -2.82843,-1.17157 -0.75011,-0.75011 -1.17157,-1.76762 -1.17157,-2.82843 0,-1.06081 0.42146,-2.07832 1.17157,-2.82843 0.75011,-0.75011 1.76762,-1.17157 2.82843,-1.17157 z"
       style="fill:#000000;fill-opacity:1;fill-rule:nonzero;stroke:#000000;stroke-width:1;stroke-linecap:butt;stroke-linejoin:round;stroke-miterlimit:10;stroke-dasharray:none;stroke-opacity:1"
       transform="matrix(1.3333333,0,0,-1.3333333,0,384)"
       clip-path="url(#clipPath49)" />
    <path
       id="path50"
       d="m 237.20727,108.58182 c 1.06081,0 2.07832,0.42146 2.82843,1.17157 0.75011,0.75011 1.17157,1.76762 1.17157,2.82843 0,1.06081 -0.42146,2.07832 -1.17157,2.82843 -0.75011,0.7501 -1.76762,1.17157 -2.82843,1.17157 -1.06081,0 -2.07832,-0.42147 -2.82842,-1.17157 -0.75011,-0.75011 -1.17158,-1.76762 -1.17158,-2.82843 0,-1.06081 0.42147,-2.07832 1.17158,-2.82843 0.7501,-0.75011 1.76761,-1.17157 2.82842,-1.17157 z"
       style="fill:#000000;fill-opacity:1;fill-rule:nonzero;stroke:#000000;stroke-width:1;stroke-linecap:butt;stroke-linejoin:round;stroke-miterlimit:10;stroke-dasharray:none;stroke-opacity:1"
       transform="matrix(1.3333333,0,0,-1.3333333,0,384)"
       clip-path="url(#clipPath51)" />
    <path
       id="path52"
       d="m 300.04364,108.58182 c 1.06081,0 2.07832,0.42146 2.82842,1.17157 0.75011,0.75011 1.17158,1.76762 1.17158,2.82843 0,1.06081 -0.42147,2.07832 -1.17158,2.82843 -0.7501,0.7501 -1.76761,1.17157 -2.82842,1.17157 -1.06082,0 -2.07832,-0.42147 -2.82843,-1.17157 -0.75011,-0.75011 -1.17157,-1.76762 -1.17157,-2.82843 0,-1.06081 0.42146,-2.07832 1.17157,-2.82843 0.75011,-0.75011 1.76761,-1.17157 2.82843,-1.17157 z"
       style="fill:#000000;fill-opacity:1;fill-rule:nonzero;stroke:#000000;stroke-width:1;stroke-linecap:butt;stroke-linejoin:round;stroke-miterlimit:10;stroke-dasharray:none;stroke-opacity:1"
       transform="matrix(1.3333333,0,0,-1.3333333,0,384)"
       clip-path="url(#clipPath53)" />
    <path
       id="path54"
       d="m 362.88,108.58182 c 1.06081,0 2.07832,0.42146 2.82843,1.17157 0.7501,0.75011 1.17157,1.76762 1.17157,2.82843 0,1.06081 -0.42147,2.07832 -1.17157,2.82843 -0.75011,0.7501 -1.76762,1.17157 -2.82843,1.17157 -1.06081,0 -2.07832,-0.42147 -2.82843,-1.17157 -0.75011,-0.75011 -1.17157,-1.76762 -1.17157,-2.82843 0,-1.06081 0.42146,-2.07832 1.17157,-2.82843 0.75011,-0.75011 1.76762,-1.17157 2.82843,-1.17157 z"
       style="fill:#000000;fill-opacity:1;fill-rule:nonzero;stroke:#000000;stroke-width:1;stroke-linecap:butt;stroke-linejoin:round;stroke-miterlimit:10;stroke-dasharray:none;stroke-opacity:1"
       transform="matrix(1.3333333,0,0,-1.3333333,0,384)"
       clip-path="url(#clipPath55)" />
    <path
       id="path56"
       d="m 48.698182,171.41818 c 1.060812,0 2.078319,0.42147 2.828427,1.17157 0.750108,0.75011 1.171573,1.76762 1.171573,2.82843 0,1.06081 -0.421465,2.07832 -1.171573,2.82843 -0.750108,0.75011 -1.767615,1.17157 -2.828427,1.17157 -1.060813,0 -2.07832,-0.42146 -2.828427,-1.17157 -0.750108,-0.75011 -1.171573,-1.76762 -1.171573,-2.82843 0,-1.06081 0.421465,-2.07832 1.171573,-2.82843 0.750107,-0.7501 1.767614,-1.17157 2.828427,-1.17157 z"
       style="fill:#000000;fill-opacity:1;fill-rule:nonzero;stroke:#000000;stroke-width:1;stroke-linecap:butt;stroke-linejoin:round;stroke-miterlimit:10;stroke-dasharray:none;stroke-opacity:1"
       transform="matrix(1.3333333,0,0,-1.3333333,0,384)"
       clip-path="url(#clipPath57)" />
    <path
       id="path58"
       d="m 111.53455,171.41818 c 1.06081,0 2.07832,0.42147 2.82842,1.17157 0.75011,0.75011 1.17158,1.76762 1.17158,2.82843 0,1.06081 -0.42147,2.07832 -1.17158,2.82843 -0.7501,0.75011 -1.76761,1.17157 -2.82842,1.17157 -1.06082,0 -2.07832,-0.42146 -2.82843,-1.17157 -0.75011,-0.75011 -1.17157,-1.76762 -1.17157,-2.82843 0,-1.06081 0.42146,-2.07832 1.17157,-2.82843 0.75011,-0.7501 1.76761,-1.17157 2.82843,-1.17157 z"
       style="fill:#000000;fill-opacity:1;fill-rule:nonzero;stroke:#000000;stroke-width:1;stroke-linecap:butt;stroke-linejoin:round;stroke-miterlimit:10;stroke-dasharray:none;stroke-opacity:1"
       transform="matrix(1.3333333,0,0,-1.3333333,0,384)"
       clip-path="url(#clipPath59)" />
    <path
       id="path60"
       d="m 174.37091,171.41818 c 1.06081,0 2.07832,0.42147 2.82843,1.17157 0.7501,0.75011 1.17157,1.76762 1.17157,2.82843 0,1.06081 -0.42147,2.07832 -1.17157,2.82843 -0.75011,0.75011 -1.76762,1.17157 -2.82843,1.17157 -1.06081,0 -2.07832,-0.42146 -2.82843,-1.17157 -0.75011,-0.75011 -1.17157,-1.76762 -1.17157,-2.82843 0,-1.06081 0.42146,-2.07832 1.17157,-2.82843 0.75011,-0.7501 1.76762,-1.17157 2.82843,-1.17157 z"
       style="fill:#000000;fill-opacity:1;fill-rule:nonzero;stroke:#000000;stroke-width:1;stroke-linecap:butt;stroke-linejoin:round;stroke-miterlimit:10;stroke-dasharray:none;stroke-opacity:1"
       transform="matrix(1.3333333,0,0,-1.3333333,0,384)"
       clip-path="url(#clipPath61)" />
    <path
       id="path62"
       d="m 237.20727,171.41818 c 1.06081,0 2.07832,0.42147 2.82843,1.17157 0.75011,0.75011 1.17157,1.76762 1.17157,2.82843 0,1.06081 -0.42146,2.07832 -1.17157,2.82843 -0.75011,0.75011 -1.76762,1.17157 -2.82843,1.17157 -1.06081,0 -2.07832,-0.42146 -2.82842,-1.17157 -0.75011,-0.75011 -1.17158,-1.76762 -1.17158,-2.82843 0,-1.06081 0.42147,-2.07832 1.17158,-2.82843 0.7501,-0.7501 1.76761,-1.17157 2.82842,-1.17157 z"
       style="fill:#000000;fill-opacity:1;fill-rule:nonzero;stroke:#000000;stroke-width:1;stroke-linecap:butt;stroke-linejoin:round;stroke-miterlimit:10;stroke-dasharray:none;stroke-opacity:1"
       transform="matrix(1.3333333,0,0,-1.3333333,0,384)"
       clip-path="url(#clipPath63)" />
    <path
       id="path64"
       d="m 300.04364,171.41818 c 1.06081,0 2.07832,0.42147 2.82842,1.17157 0.75011,0.75011 1.17158,1.76762 1.17158,2.82843 0,1.06081 -0.42147,2.07832 -1.17158,2.82843 -0.7501,0.75011 -1.76761,1.17157 -2.82842,1.17157 -1.06082,0 -2.07832,-0.42146 -2.82843,-1.17157 -0.75011,-0.75011 -1.17157,-1.76762 -1.17157,-2.82843 0,-1.06081 0.42146,-2.07832 1.17157,-2.82843 0.75011,-0.7501 1.76761,-1.17157 2.82843,-1.17157 z"
       style="fill:#000000;fill-opacity:1;fill-rule:nonzero;stroke:#000000;stroke-width:1;stroke-linecap:butt;stroke-linejoin:round;stroke-miterlimit:10;stroke-dasharray:none;stroke-opacity:1"
       transform="matrix(1.3333333,0,0,-1.3333333,0,384)"
       clip-path="url(#clipPath65)" />
    <path
       id="path66"
       d="m 362.88,171.41818 c 1.06081,0 2.07832,0.42147 2.82843,1.17157 0.7501,0.75011 1.17157,1.76762 1.17157,2.82843 0,1.06081 -0.42147,2.07832 -1.17157,2.82843 -0.75011,0.75011 -1.76762,1.17157 -2.82843,1.17157 -1.06081,0 -2.07832,-0.42146 -2.82843,-1.17157 -0.75011,-0.75011 -1.17157,-1.76762 -1.17157,-2.82843 0,-1.06081 0.42146,-2.07832 1.17157,-2.82843 0.75011,-0.7501 1.76762,-1.17157 2.82843,-1.17157 z"
       style="fill:#000000;fill-opacity:1;fill-rule:nonzero;stroke:#000000;stroke-width:1;stroke-linecap:butt;stroke-linejoin:round;stroke-miterlimit:10;stroke-dasharray:none;stroke-opacity:1"
       transform="matrix(1.3333333,0,0,-1.3333333,0,384)"
       clip-path="url(#clipPath67)" />
    <path
       id="path68"
       d="m 48.698182,234.25454 c 1.060812,0 2.078319,0.42147 2.828427,1.17158 0.750108,0.75011 1.171573,1.76761 1.171573,2.82842 0,1.06082 -0.421465,2.07832 -1.171573,2.82843 -0.750108,0.75011 -1.767615,1.17157 -2.828427,1.17157 -1.060813,0 -2.07832,-0.42146 -2.828427,-1.17157 -0.750108,-0.75011 -1.171573,-1.76761 -1.171573,-2.82843 0,-1.06081 0.421465,-2.07831 1.171573,-2.82842 0.750107,-0.75011 1.767614,-1.17158 2.828427,-1.17158 z"
       style="fill:#000000;fill-opacity:1;fill-rule:nonzero;stroke:#000000;stroke-width:1;stroke-linecap:butt;stroke-linejoin:round;stroke-miterlimit:10;stroke-dasharray:none;stroke-opacity:1"
       transform="matrix(1.3333333,0,0,-1.3333333,0,384)"
       clip-path="url(#clipPath69)" />
    <path
       id="path70"
       d="m 111.53455,234.25454 c 1.06081,0 2.07832,0.42147 2.82842,1.17158 0.75011,0.75011 1.17158,1.76761 1.17158,2.82842 0,1.06082 -0.42147,2.07832 -1.17158,2.82843 -0.7501,0.75011 -1.76761,1.17157 -2.82842,1.17157 -1.06082,0 -2.07832,-0.42146 -2.82843,-1.17157 -0.75011,-0.75011 -1.17157,-1.76761 -1.17157,-2.82843 0,-1.06081 0.42146,-2.07831 1.17157,-2.82842 0.75011,-0.75011 1.76761,-1.17158 2.82843,-1.17158 z"
       style="fill:#000000;fill-opacity:1;fill-rule:nonzero;stroke:#000000;stroke-width:1;stroke-linecap:butt;stroke-linejoin:round;stroke-miterlimit:10;stroke-dasharray:none;stroke-opacity:1"
       transform="matrix(1.3333333,0,0,-1.3333333,0,384)"
       clip-path="url(#clipPath71)" />
    <path
       id="path72"
       d="m 174.37091,234.25454 c 1.06081,0 2.07832,0.42147 2.82843,1.17158 0.7501,0.75011 1.17157,1.76761 1.17157,2.82842 0,1.06082 -0.42147,2.07832 -1.17157,2.82843 -0.75011,0.75011 -1.76762,1.17157 -2.82843,1.17157 -1.06081,0 -2.07832,-0.42146 -2.82843,-1.17157 -0.75011,-0.75011 -1.17157,-1.76761 -1.17157,-2.82843 0,-1.06081 0.42146,-2.07831 1.17157,-2.82842 0.75011,-0.75011 1.76762,-1.17158 2.82843,-1.17158 z"
       style="fill:#000000;fill-opacity:1;fill-rule:nonzero;stroke:#000000;stroke-width:1;stroke-linecap:butt;stroke-linejoin:round;stroke-miterlimit:10;stroke-dasharray:none;stroke-opacity:1"
       transform="matrix(1.3333333,0,0,-1.3333333,0,384)"
       clip-path="url(#clipPath73)" />
    <path
       id="path74"
       d="m 237.20727,234.25454 c 1.06081,0 2.07832,0.42147 2.82843,1.17158 0.75011,0.75011 1.17157,1.76761 1.17157,2.82842 0,1.06082 -0.42146,2.07832 -1.17157,2.82843 -0.75011,0.75011 -1.76762,1.17157 -2.82843,1.17157 -1.06081,0 -2.07832,-0.42146 -2.82842,-1.17157 -0.75011,-0.75011 -1.17158,-1.76761 -1.17158,-2.82843 0,-1.06081 0.42147,-2.07831 1.17158,-2.82842 0.7501,-0.75011 1.76761,-1.17158 2.82842,-1.17158 z"
       style="fill:#000000;fill-opacity:1;fill-rule:nonzero;stroke:#000000;stroke-width:1;stroke-linecap:butt;stroke-linejoin:round;stroke-miterlimit:10;stroke-dasharray:none;stroke-opacity:1"
       transform="matrix(1.3333333,0,0,-1.3333333,0,384)"
       clip-path="url(#clipPath75)" />
    <path
       id="path76"
       d="m 300.04364,234.25454 c 1.06081,0 2.07832,0.42147 2.82842,1.17158 0.75011,0.75011 1.17158,1.76761 1.17158,2.82842 0,1.06082 -0.42147,2.07832 -1.17158,2.82843 -0.7501,0.75011 -1.76761,1.17157 -2.82842,1.17157 -1.06082,0 -2.07832,-0.42146 -2.82843,-1.17157 -0.75011,-0.75011 -1.17157,-1.76761 -1.17157,-2.82843 0,-1.06081 0.42146,-2.07831 1.17157,-2.82842 0.75011,-0.75011 1.76761,-1.17158 2.82843,-1.17158 z"
       style="fill:#000000;fill-opacity:1;fill-rule:nonzero;stroke:#000000;stroke-width:1;stroke-linecap:butt;stroke-linejoin:round;stroke-miterlimit:10;stroke-dasharray:none;stroke-opacity:1"
       transform="matrix(1.3333333,0,0,-1.3333333,0,384)"
       clip-path="url(#clipPath77)" />
    <path
       id="path78"
       d="m 362.88,234.25454 c 1.06081,0 2.07832,0.42147 2.82843,1.17158 0.7501,0.75011 1.17157,1.76761 1.17157,2.82842 0,1.06082 -0.42147,2.07832 -1.17157,2.82843 -0.75011,0.75011 -1.76762,1.17157 -2.82843,1.17157 -1.06081,0 -2.07832,-0.42146 -2.82843,-1.17157 -0.75011,-0.75011 -1.17157,-1.76761 -1.17157,-2.82843 0,-1.06081 0.42146,-2.07831 1.17157,-2.82842 0.75011,-0.75011 1.76762,-1.17158 2.82843,-1.17158 z"
       style="fill:#000000;fill-opacity:1;fill-rule:nonzero;stroke:#000000;stroke-width:1;stroke-linecap:butt;stroke-linejoin:round;stroke-miterlimit:10;stroke-dasharray:none;stroke-opacity:1"
       transform="matrix(1.3333333,0,0,-1.3333333,0,384)"
       clip-path="url(#clipPath79)" />
    <path
       id="path80"
       d="M 501.12,49.745455 V 238.25454"
       style="fill:none;stroke:#a9a9a9;stroke-width:1.5;stroke-linecap:square;stroke-linejoin:round;stroke-miterlimit:10;stroke-dasharray:none;stroke-opacity:0.3"
       transform="matrix(1.3333333,0,0,-1.3333333,0,384)"
       clip-path="url(#clipPath81)" />
    <path
       id="path82"
       d="M 563.95636,49.745455 V 238.25454"
       style="fill:none;stroke:#a9a9a9;stroke-width:1.5;stroke-linecap:square;stroke-linejoin:round;stroke-miterlimit:10;stroke-dasharray:none;stroke-opacity:0.3"
       transform="matrix(1.3333333,0,0,-1.3333333,0,384)"
       clip-path="url(#clipPath83)" />
    <path
       id="path84"
       d="M 626.79273,49.745455 V 238.25454"
       style="fill:none;stroke:#a9a9a9;stroke-width:1.5;stroke-linecap:square;stroke-linejoin:round;stroke-miterlimit:10;stroke-dasharray:none;stroke-opacity:0.3"
       transform="matrix(1.3333333,0,0,-1.3333333,0,384)"
       clip-path="url(#clipPath85)" />
    <path
       id="path86"
       d="M 689.62909,49.745455 V 238.25454"
       style="fill:none;stroke:#a9a9a9;stroke-width:1.5;stroke-linecap:square;stroke-linejoin:round;stroke-miterlimit:10;stroke-dasharray:none;stroke-opacity:0.3"
       transform="matrix(1.3333333,0,0,-1.3333333,0,384)"
       clip-path="url(#clipPath87)" />
    <path
       id="path88"
       d="M 752.46545,49.745455 V 238.25454"
       style="fill:none;stroke:#a9a9a9;stroke-width:1.5;stroke-linecap:square;stroke-linejoin:round;stroke-miterlimit:10;stroke-dasharray:none;stroke-opacity:0.3"
       transform="matrix(1.3333333,0,0,-1.3333333,0,384)"
       clip-path="url(#clipPath89)" />
    <path
       id="path90"
       d="M 815.30182,49.745455 V 238.25454"
       style="fill:none;stroke:#a9a9a9;stroke-width:1.5;stroke-linecap:square;stroke-linejoin:round;stroke-miterlimit:10;stroke-dasharray:none;stroke-opacity:0.3"
       transform="matrix(1.3333333,0,0,-1.3333333,0,384)"
       clip-path="url(#clipPath91)" />
    <path
       id="path92"
       d="M 501.12,49.745455 H 815.30182"
       style="fill:none;stroke:#a9a9a9;stroke-width:1.5;stroke-linecap:square;stroke-linejoin:round;stroke-miterlimit:10;stroke-dasharray:none;stroke-opacity:0.3"
       transform="matrix(1.3333333,0,0,-1.3333333,0,384)"
       clip-path="url(#clipPath93)" />
    <path
       id="path94"
       d="M 501.12,112.58182 H 815.30182"
       style="fill:none;stroke:#a9a9a9;stroke-width:1.5;stroke-linecap:square;stroke-linejoin:round;stroke-miterlimit:10;stroke-dasharray:none;stroke-opacity:0.3"
       transform="matrix(1.3333333,0,0,-1.3333333,0,384)"
       clip-path="url(#clipPath95)" />
    <path
       id="path96"
       d="M 501.12,175.41818 H 815.30182"
       style="fill:none;stroke:#a9a9a9;stroke-width:1.5;stroke-linecap:square;stroke-linejoin:round;stroke-miterlimit:10;stroke-dasharray:none;stroke-opacity:0.3"
       transform="matrix(1.3333333,0,0,-1.3333333,0,384)"
       clip-path="url(#clipPath97)" />
    <path
       id="path98"
       d="M 501.12,238.25454 H 815.30182"
       style="fill:none;stroke:#a9a9a9;stroke-width:1.5;stroke-linecap:square;stroke-linejoin:round;stroke-miterlimit:10;stroke-dasharray:none;stroke-opacity:0.3"
       transform="matrix(1.3333333,0,0,-1.3333333,0,384)"
       clip-path="url(#clipPath99)" />
    <path
       id="path100"
       d="M 501.12,49.745455 V 238.25454"
       style="fill:none;stroke:#ff3f7f;stroke-width:5;stroke-linecap:square;stroke-linejoin:round;stroke-miterlimit:10;stroke-dasharray:none;stroke-opacity:0.9"
       transform="matrix(1.3333333,0,0,-1.3333333,0,384)"
       clip-path="url(#clipPath101)" />
    <path
       id="path102"
       d="M 563.95636,49.745455 V 238.25454"
       style="fill:none;stroke:#ff3f7f;stroke-width:5;stroke-linecap:square;stroke-linejoin:round;stroke-miterlimit:10;stroke-dasharray:none;stroke-opacity:0.9"
       transform="matrix(1.3333333,0,0,-1.3333333,0,384)"
       clip-path="url(#clipPath103)" />
    <path
       id="path104"
       d="M 626.79273,49.745455 V 238.25454"
       style="fill:none;stroke:#ff3f7f;stroke-width:5;stroke-linecap:square;stroke-linejoin:round;stroke-miterlimit:10;stroke-dasharray:none;stroke-opacity:0.9"
       transform="matrix(1.3333333,0,0,-1.3333333,0,384)"
       clip-path="url(#clipPath105)" />
    <path
       id="path106"
       d="M 689.62909,49.745455 V 238.25454"
       style="fill:none;stroke:#ff3f7f;stroke-width:5;stroke-linecap:square;stroke-linejoin:round;stroke-miterlimit:10;stroke-dasharray:none;stroke-opacity:0.9"
       transform="matrix(1.3333333,0,0,-1.3333333,0,384)"
       clip-path="url(#clipPath107)" />
    <path
       id="path108"
       d="M 752.46545,49.745455 V 238.25454"
       style="fill:none;stroke:#ff3f7f;stroke-width:5;stroke-linecap:square;stroke-linejoin:round;stroke-miterlimit:10;stroke-dasharray:none;stroke-opacity:0.9"
       transform="matrix(1.3333333,0,0,-1.3333333,0,384)"
       clip-path="url(#clipPath109)" />
    <path
       id="path110"
       d="M 815.30182,49.745455 V 238.25454"
       style="fill:none;stroke:#ff3f7f;stroke-width:5;stroke-linecap:square;stroke-linejoin:round;stroke-miterlimit:10;stroke-dasharray:none;stroke-opacity:0.9"
       transform="matrix(1.3333333,0,0,-1.3333333,0,384)"
       clip-path="url(#clipPath111)" />
    <path
       id="path112"
       d="m 488.55273,246.7065 c 2.75783,0 5.40308,1.0957 7.35317,3.04578 1.95008,1.95009 3.04578,4.59534 3.04578,7.35317 0,2.75784 -1.0957,5.40309 -3.04578,7.35317 -1.95009,1.95009 -4.59534,3.04579 -7.35317,3.04579 -2.75784,0 -5.40309,-1.0957 -7.35317,-3.04579 -1.95009,-1.95008 -3.04579,-4.59533 -3.04579,-7.35317 0,-2.75783 1.0957,-5.40308 3.04579,-7.35317 1.95008,-1.95008 4.59533,-3.04578 7.35317,-3.04578 z"
       style="fill:#ffffff;fill-opacity:1;fill-rule:nonzero;stroke:#000000;stroke-width:1;stroke-linecap:butt;stroke-linejoin:miter;stroke-miterlimit:10;stroke-dasharray:none;stroke-opacity:1"
       transform="matrix(1.3333333,0,0,-1.3333333,0,384)" />
    <path
       id="path113"
       d="m 10.10131,-8.6470945 c 0.08203,-0.1757812 0.128906,-0.3164062 1.171875,-0.3164062 H 11.50756 V -9.561157 c -0.433594,0.023437 -1.441406,0.023437 -1.546875,0.023437 -0.3984375,0 -1.3828125,0 -1.7109375,-0.023437 v 0.5976563 c 0.3164062,0 0.8320312,0 1.21875,0.1523437 L 9.398185,-8.6119382 6.53881,-2.0963132 3.5270912,-8.9635007 H 4.8278725 V -9.561157 C 4.38256,-9.53772 3.0349037,-9.53772 2.50756,-9.53772 c -0.4453125,0 -1.82812504,0 -2.16796879,-0.023437 v 0.5976563 H 1.5934975 l 3.84375,8.80078121 c 0.1289062,0.28125 0.2578125,0.29296875 0.4804687,0.29296875 0.2226563,0 0.3632813,0 0.4804688,-0.29296875 z m 0,0"
       style="fill:#000000;fill-opacity:1;fill-rule:nonzero;stroke:none"
       aria-label="V"
       transform="matrix(1.3333333,0,0,1.3333333,643.50424,45.841959)" />
    <path
       id="path114"
       d="m 501.12,45.745455 c 1.06081,0 2.07832,0.421465 2.82843,1.171572 0.7501,0.750108 1.17157,1.767615 1.17157,2.828428 0,1.060812 -0.42147,2.078319 -1.17157,2.828427 -0.75011,0.750107 -1.76762,1.171573 -2.82843,1.171573 -1.06081,0 -2.07832,-0.421466 -2.82843,-1.171573 -0.7501,-0.750108 -1.17157,-1.767615 -1.17157,-2.828427 0,-1.060813 0.42147,-2.07832 1.17157,-2.828428 0.75011,-0.750107 1.76762,-1.171572 2.82843,-1.171572 z"
       style="fill:#000000;fill-opacity:1;fill-rule:nonzero;stroke:#000000;stroke-width:1;stroke-linecap:butt;stroke-linejoin:round;stroke-miterlimit:10;stroke-dasharray:none;stroke-opacity:1"
       transform="matrix(1.3333333,0,0,-1.3333333,0,384)"
       clip-path="url(#clipPath115)" />
    <path
       id="path116"
       d="m 563.95636,45.745455 c 1.06082,0 2.07832,0.421465 2.82843,1.171572 0.75011,0.750108 1.17157,1.767615 1.17157,2.828428 0,1.060812 -0.42146,2.078319 -1.17157,2.828427 -0.75011,0.750107 -1.76761,1.171573 -2.82843,1.171573 -1.06081,0 -2.07832,-0.421466 -2.82842,-1.171573 -0.75011,-0.750108 -1.17158,-1.767615 -1.17158,-2.828427 0,-1.060813 0.42147,-2.07832 1.17158,-2.828428 0.7501,-0.750107 1.76761,-1.171572 2.82842,-1.171572 z"
       style="fill:#000000;fill-opacity:1;fill-rule:nonzero;stroke:#000000;stroke-width:1;stroke-linecap:butt;stroke-linejoin:round;stroke-miterlimit:10;stroke-dasharray:none;stroke-opacity:1"
       transform="matrix(1.3333333,0,0,-1.3333333,0,384)"
       clip-path="url(#clipPath117)" />
    <path
       id="path118"
       d="m 626.79273,45.745455 c 1.06081,0 2.07832,0.421465 2.82842,1.171572 0.75011,0.750108 1.17158,1.767615 1.17158,2.828428 0,1.060812 -0.42147,2.078319 -1.17158,2.828427 -0.7501,0.750107 -1.76761,1.171573 -2.82842,1.171573 -1.06082,0 -2.07832,-0.421466 -2.82843,-1.171573 -0.75011,-0.750108 -1.17157,-1.767615 -1.17157,-2.828427 0,-1.060813 0.42146,-2.07832 1.17157,-2.828428 0.75011,-0.750107 1.76761,-1.171572 2.82843,-1.171572 z"
       style="fill:#000000;fill-opacity:1;fill-rule:nonzero;stroke:#000000;stroke-width:1;stroke-linecap:butt;stroke-linejoin:round;stroke-miterlimit:10;stroke-dasharray:none;stroke-opacity:1"
       transform="matrix(1.3333333,0,0,-1.3333333,0,384)"
       clip-path="url(#clipPath119)" />
    <path
       id="path120"
       d="m 689.62909,45.745455 c 1.06081,0 2.07832,0.421465 2.82843,1.171572 0.75011,0.750108 1.17157,1.767615 1.17157,2.828428 0,1.060812 -0.42146,2.078319 -1.17157,2.828427 -0.75011,0.750107 -1.76762,1.171573 -2.82843,1.171573 -1.06081,0 -2.07832,-0.421466 -2.82843,-1.171573 -0.7501,-0.750108 -1.17157,-1.767615 -1.17157,-2.828427 0,-1.060813 0.42147,-2.07832 1.17157,-2.828428 0.75011,-0.750107 1.76762,-1.171572 2.82843,-1.171572 z"
       style="fill:#000000;fill-opacity:1;fill-rule:nonzero;stroke:#000000;stroke-width:1;stroke-linecap:butt;stroke-linejoin:round;stroke-miterlimit:10;stroke-dasharray:none;stroke-opacity:1"
       transform="matrix(1.3333333,0,0,-1.3333333,0,384)"
       clip-path="url(#clipPath121)" />
    <path
       id="path122"
       d="m 752.46545,45.745455 c 1.06082,0 2.07832,0.421465 2.82843,1.171572 0.75011,0.750108 1.17157,1.767615 1.17157,2.828428 0,1.060812 -0.42146,2.078319 -1.17157,2.828427 -0.75011,0.750107 -1.76761,1.171573 -2.82843,1.171573 -1.06081,0 -2.07832,-0.421466 -2.82842,-1.171573 -0.75011,-0.750108 -1.17158,-1.767615 -1.17158,-2.828427 0,-1.060813 0.42147,-2.07832 1.17158,-2.828428 0.7501,-0.750107 1.76761,-1.171572 2.82842,-1.171572 z"
       style="fill:#000000;fill-opacity:1;fill-rule:nonzero;stroke:#000000;stroke-width:1;stroke-linecap:butt;stroke-linejoin:round;stroke-miterlimit:10;stroke-dasharray:none;stroke-opacity:1"
       transform="matrix(1.3333333,0,0,-1.3333333,0,384)"
       clip-path="url(#clipPath123)" />
    <path
       id="path124"
       d="m 815.30182,45.745455 c 1.06081,0 2.07832,0.421465 2.82842,1.171572 0.75011,0.750108 1.17158,1.767615 1.17158,2.828428 0,1.060812 -0.42147,2.078319 -1.17158,2.828427 -0.7501,0.750107 -1.76761,1.171573 -2.82842,1.171573 -1.06081,0 -2.07832,-0.421466 -2.82843,-1.171573 -0.75011,-0.750108 -1.17157,-1.767615 -1.17157,-2.828427 0,-1.060813 0.42146,-2.07832 1.17157,-2.828428 0.75011,-0.750107 1.76762,-1.171572 2.82843,-1.171572 z"
       style="fill:#000000;fill-opacity:1;fill-rule:nonzero;stroke:#000000;stroke-width:1;stroke-linecap:butt;stroke-linejoin:round;stroke-miterlimit:10;stroke-dasharray:none;stroke-opacity:1"
       transform="matrix(1.3333333,0,0,-1.3333333,0,384)"
       clip-path="url(#clipPath125)" />
    <path
       id="path126"
       d="m 501.12,108.58182 c 1.06081,0 2.07832,0.42146 2.82843,1.17157 0.7501,0.75011 1.17157,1.76762 1.17157,2.82843 0,1.06081 -0.42147,2.07832 -1.17157,2.82843 -0.75011,0.7501 -1.76762,1.17157 -2.82843,1.17157 -1.06081,0 -2.07832,-0.42147 -2.82843,-1.17157 -0.7501,-0.75011 -1.17157,-1.76762 -1.17157,-2.82843 0,-1.06081 0.42147,-2.07832 1.17157,-2.82843 0.75011,-0.75011 1.76762,-1.17157 2.82843,-1.17157 z"
       style="fill:#000000;fill-opacity:1;fill-rule:nonzero;stroke:#000000;stroke-width:1;stroke-linecap:butt;stroke-linejoin:round;stroke-miterlimit:10;stroke-dasharray:none;stroke-opacity:1"
       transform="matrix(1.3333333,0,0,-1.3333333,0,384)"
       clip-path="url(#clipPath127)" />
    <path
       id="path128"
       d="m 563.95636,108.58182 c 1.06082,0 2.07832,0.42146 2.82843,1.17157 0.75011,0.75011 1.17157,1.76762 1.17157,2.82843 0,1.06081 -0.42146,2.07832 -1.17157,2.82843 -0.75011,0.7501 -1.76761,1.17157 -2.82843,1.17157 -1.06081,0 -2.07832,-0.42147 -2.82842,-1.17157 -0.75011,-0.75011 -1.17158,-1.76762 -1.17158,-2.82843 0,-1.06081 0.42147,-2.07832 1.17158,-2.82843 0.7501,-0.75011 1.76761,-1.17157 2.82842,-1.17157 z"
       style="fill:#000000;fill-opacity:1;fill-rule:nonzero;stroke:#000000;stroke-width:1;stroke-linecap:butt;stroke-linejoin:round;stroke-miterlimit:10;stroke-dasharray:none;stroke-opacity:1"
       transform="matrix(1.3333333,0,0,-1.3333333,0,384)"
       clip-path="url(#clipPath129)" />
    <path
       id="path130"
       d="m 626.79273,108.58182 c 1.06081,0 2.07832,0.42146 2.82842,1.17157 0.75011,0.75011 1.17158,1.76762 1.17158,2.82843 0,1.06081 -0.42147,2.07832 -1.17158,2.82843 -0.7501,0.7501 -1.76761,1.17157 -2.82842,1.17157 -1.06082,0 -2.07832,-0.42147 -2.82843,-1.17157 -0.75011,-0.75011 -1.17157,-1.76762 -1.17157,-2.82843 0,-1.06081 0.42146,-2.07832 1.17157,-2.82843 0.75011,-0.75011 1.76761,-1.17157 2.82843,-1.17157 z"
       style="fill:#000000;fill-opacity:1;fill-rule:nonzero;stroke:#000000;stroke-width:1;stroke-linecap:butt;stroke-linejoin:round;stroke-miterlimit:10;stroke-dasharray:none;stroke-opacity:1"
       transform="matrix(1.3333333,0,0,-1.3333333,0,384)"
       clip-path="url(#clipPath131)" />
    <path
       id="path132"
       d="m 689.62909,108.58182 c 1.06081,0 2.07832,0.42146 2.82843,1.17157 0.75011,0.75011 1.17157,1.76762 1.17157,2.82843 0,1.06081 -0.42146,2.07832 -1.17157,2.82843 -0.75011,0.7501 -1.76762,1.17157 -2.82843,1.17157 -1.06081,0 -2.07832,-0.42147 -2.82843,-1.17157 -0.7501,-0.75011 -1.17157,-1.76762 -1.17157,-2.82843 0,-1.06081 0.42147,-2.07832 1.17157,-2.82843 0.75011,-0.75011 1.76762,-1.17157 2.82843,-1.17157 z"
       style="fill:#000000;fill-opacity:1;fill-rule:nonzero;stroke:#000000;stroke-width:1;stroke-linecap:butt;stroke-linejoin:round;stroke-miterlimit:10;stroke-dasharray:none;stroke-opacity:1"
       transform="matrix(1.3333333,0,0,-1.3333333,0,384)"
       clip-path="url(#clipPath133)" />
    <path
       id="path134"
       d="m 752.46545,108.58182 c 1.06082,0 2.07832,0.42146 2.82843,1.17157 0.75011,0.75011 1.17157,1.76762 1.17157,2.82843 0,1.06081 -0.42146,2.07832 -1.17157,2.82843 -0.75011,0.7501 -1.76761,1.17157 -2.82843,1.17157 -1.06081,0 -2.07832,-0.42147 -2.82842,-1.17157 -0.75011,-0.75011 -1.17158,-1.76762 -1.17158,-2.82843 0,-1.06081 0.42147,-2.07832 1.17158,-2.82843 0.7501,-0.75011 1.76761,-1.17157 2.82842,-1.17157 z"
       style="fill:#000000;fill-opacity:1;fill-rule:nonzero;stroke:#000000;stroke-width:1;stroke-linecap:butt;stroke-linejoin:round;stroke-miterlimit:10;stroke-dasharray:none;stroke-opacity:1"
       transform="matrix(1.3333333,0,0,-1.3333333,0,384)"
       clip-path="url(#clipPath135)" />
    <path
       id="path136"
       d="m 815.30182,108.58182 c 1.06081,0 2.07832,0.42146 2.82842,1.17157 0.75011,0.75011 1.17158,1.76762 1.17158,2.82843 0,1.06081 -0.42147,2.07832 -1.17158,2.82843 -0.7501,0.7501 -1.76761,1.17157 -2.82842,1.17157 -1.06081,0 -2.07832,-0.42147 -2.82843,-1.17157 -0.75011,-0.75011 -1.17157,-1.76762 -1.17157,-2.82843 0,-1.06081 0.42146,-2.07832 1.17157,-2.82843 0.75011,-0.75011 1.76762,-1.17157 2.82843,-1.17157 z"
       style="fill:#000000;fill-opacity:1;fill-rule:nonzero;stroke:#000000;stroke-width:1;stroke-linecap:butt;stroke-linejoin:round;stroke-miterlimit:10;stroke-dasharray:none;stroke-opacity:1"
       transform="matrix(1.3333333,0,0,-1.3333333,0,384)"
       clip-path="url(#clipPath137)" />
    <path
       id="path138"
       d="m 501.12,171.41818 c 1.06081,0 2.07832,0.42147 2.82843,1.17157 0.7501,0.75011 1.17157,1.76762 1.17157,2.82843 0,1.06081 -0.42147,2.07832 -1.17157,2.82843 -0.75011,0.75011 -1.76762,1.17157 -2.82843,1.17157 -1.06081,0 -2.07832,-0.42146 -2.82843,-1.17157 -0.7501,-0.75011 -1.17157,-1.76762 -1.17157,-2.82843 0,-1.06081 0.42147,-2.07832 1.17157,-2.82843 0.75011,-0.7501 1.76762,-1.17157 2.82843,-1.17157 z"
       style="fill:#000000;fill-opacity:1;fill-rule:nonzero;stroke:#000000;stroke-width:1;stroke-linecap:butt;stroke-linejoin:round;stroke-miterlimit:10;stroke-dasharray:none;stroke-opacity:1"
       transform="matrix(1.3333333,0,0,-1.3333333,0,384)"
       clip-path="url(#clipPath139)" />
    <path
       id="path140"
       d="m 563.95636,171.41818 c 1.06082,0 2.07832,0.42147 2.82843,1.17157 0.75011,0.75011 1.17157,1.76762 1.17157,2.82843 0,1.06081 -0.42146,2.07832 -1.17157,2.82843 -0.75011,0.75011 -1.76761,1.17157 -2.82843,1.17157 -1.06081,0 -2.07832,-0.42146 -2.82842,-1.17157 -0.75011,-0.75011 -1.17158,-1.76762 -1.17158,-2.82843 0,-1.06081 0.42147,-2.07832 1.17158,-2.82843 0.7501,-0.7501 1.76761,-1.17157 2.82842,-1.17157 z"
       style="fill:#000000;fill-opacity:1;fill-rule:nonzero;stroke:#000000;stroke-width:1;stroke-linecap:butt;stroke-linejoin:round;stroke-miterlimit:10;stroke-dasharray:none;stroke-opacity:1"
       transform="matrix(1.3333333,0,0,-1.3333333,0,384)"
       clip-path="url(#clipPath141)" />
    <path
       id="path142"
       d="m 626.79273,171.41818 c 1.06081,0 2.07832,0.42147 2.82842,1.17157 0.75011,0.75011 1.17158,1.76762 1.17158,2.82843 0,1.06081 -0.42147,2.07832 -1.17158,2.82843 -0.7501,0.75011 -1.76761,1.17157 -2.82842,1.17157 -1.06082,0 -2.07832,-0.42146 -2.82843,-1.17157 -0.75011,-0.75011 -1.17157,-1.76762 -1.17157,-2.82843 0,-1.06081 0.42146,-2.07832 1.17157,-2.82843 0.75011,-0.7501 1.76761,-1.17157 2.82843,-1.17157 z"
       style="fill:#000000;fill-opacity:1;fill-rule:nonzero;stroke:#000000;stroke-width:1;stroke-linecap:butt;stroke-linejoin:round;stroke-miterlimit:10;stroke-dasharray:none;stroke-opacity:1"
       transform="matrix(1.3333333,0,0,-1.3333333,0,384)"
       clip-path="url(#clipPath143)" />
    <path
       id="path144"
       d="m 689.62909,171.41818 c 1.06081,0 2.07832,0.42147 2.82843,1.17157 0.75011,0.75011 1.17157,1.76762 1.17157,2.82843 0,1.06081 -0.42146,2.07832 -1.17157,2.82843 -0.75011,0.75011 -1.76762,1.17157 -2.82843,1.17157 -1.06081,0 -2.07832,-0.42146 -2.82843,-1.17157 -0.7501,-0.75011 -1.17157,-1.76762 -1.17157,-2.82843 0,-1.06081 0.42147,-2.07832 1.17157,-2.82843 0.75011,-0.7501 1.76762,-1.17157 2.82843,-1.17157 z"
       style="fill:#000000;fill-opacity:1;fill-rule:nonzero;stroke:#000000;stroke-width:1;stroke-linecap:butt;stroke-linejoin:round;stroke-miterlimit:10;stroke-dasharray:none;stroke-opacity:1"
       transform="matrix(1.3333333,0,0,-1.3333333,0,384)"
       clip-path="url(#clipPath145)" />
    <path
       id="path146"
       d="m 752.46545,171.41818 c 1.06082,0 2.07832,0.42147 2.82843,1.17157 0.75011,0.75011 1.17157,1.76762 1.17157,2.82843 0,1.06081 -0.42146,2.07832 -1.17157,2.82843 -0.75011,0.75011 -1.76761,1.17157 -2.82843,1.17157 -1.06081,0 -2.07832,-0.42146 -2.82842,-1.17157 -0.75011,-0.75011 -1.17158,-1.76762 -1.17158,-2.82843 0,-1.06081 0.42147,-2.07832 1.17158,-2.82843 0.7501,-0.7501 1.76761,-1.17157 2.82842,-1.17157 z"
       style="fill:#000000;fill-opacity:1;fill-rule:nonzero;stroke:#000000;stroke-width:1;stroke-linecap:butt;stroke-linejoin:round;stroke-miterlimit:10;stroke-dasharray:none;stroke-opacity:1"
       transform="matrix(1.3333333,0,0,-1.3333333,0,384)"
       clip-path="url(#clipPath147)" />
    <path
       id="path148"
       d="m 815.30182,171.41818 c 1.06081,0 2.07832,0.42147 2.82842,1.17157 0.75011,0.75011 1.17158,1.76762 1.17158,2.82843 0,1.06081 -0.42147,2.07832 -1.17158,2.82843 -0.7501,0.75011 -1.76761,1.17157 -2.82842,1.17157 -1.06081,0 -2.07832,-0.42146 -2.82843,-1.17157 -0.75011,-0.75011 -1.17157,-1.76762 -1.17157,-2.82843 0,-1.06081 0.42146,-2.07832 1.17157,-2.82843 0.75011,-0.7501 1.76762,-1.17157 2.82843,-1.17157 z"
       style="fill:#000000;fill-opacity:1;fill-rule:nonzero;stroke:#000000;stroke-width:1;stroke-linecap:butt;stroke-linejoin:round;stroke-miterlimit:10;stroke-dasharray:none;stroke-opacity:1"
       transform="matrix(1.3333333,0,0,-1.3333333,0,384)"
       clip-path="url(#clipPath149)" />
    <path
       id="path150"
       d="m 501.12,234.25454 c 1.06081,0 2.07832,0.42147 2.82843,1.17158 0.7501,0.75011 1.17157,1.76761 1.17157,2.82842 0,1.06082 -0.42147,2.07832 -1.17157,2.82843 -0.75011,0.75011 -1.76762,1.17157 -2.82843,1.17157 -1.06081,0 -2.07832,-0.42146 -2.82843,-1.17157 -0.7501,-0.75011 -1.17157,-1.76761 -1.17157,-2.82843 0,-1.06081 0.42147,-2.07831 1.17157,-2.82842 0.75011,-0.75011 1.76762,-1.17158 2.82843,-1.17158 z"
       style="fill:#000000;fill-opacity:1;fill-rule:nonzero;stroke:#000000;stroke-width:1;stroke-linecap:butt;stroke-linejoin:round;stroke-miterlimit:10;stroke-dasharray:none;stroke-opacity:1"
       transform="matrix(1.3333333,0,0,-1.3333333,0,384)"
       clip-path="url(#clipPath151)" />
    <path
       id="path152"
       d="m 563.95636,234.25454 c 1.06082,0 2.07832,0.42147 2.82843,1.17158 0.75011,0.75011 1.17157,1.76761 1.17157,2.82842 0,1.06082 -0.42146,2.07832 -1.17157,2.82843 -0.75011,0.75011 -1.76761,1.17157 -2.82843,1.17157 -1.06081,0 -2.07832,-0.42146 -2.82842,-1.17157 -0.75011,-0.75011 -1.17158,-1.76761 -1.17158,-2.82843 0,-1.06081 0.42147,-2.07831 1.17158,-2.82842 0.7501,-0.75011 1.76761,-1.17158 2.82842,-1.17158 z"
       style="fill:#000000;fill-opacity:1;fill-rule:nonzero;stroke:#000000;stroke-width:1;stroke-linecap:butt;stroke-linejoin:round;stroke-miterlimit:10;stroke-dasharray:none;stroke-opacity:1"
       transform="matrix(1.3333333,0,0,-1.3333333,0,384)"
       clip-path="url(#clipPath153)" />
    <path
       id="path154"
       d="m 626.79273,234.25454 c 1.06081,0 2.07832,0.42147 2.82842,1.17158 0.75011,0.75011 1.17158,1.76761 1.17158,2.82842 0,1.06082 -0.42147,2.07832 -1.17158,2.82843 -0.7501,0.75011 -1.76761,1.17157 -2.82842,1.17157 -1.06082,0 -2.07832,-0.42146 -2.82843,-1.17157 -0.75011,-0.75011 -1.17157,-1.76761 -1.17157,-2.82843 0,-1.06081 0.42146,-2.07831 1.17157,-2.82842 0.75011,-0.75011 1.76761,-1.17158 2.82843,-1.17158 z"
       style="fill:#000000;fill-opacity:1;fill-rule:nonzero;stroke:#000000;stroke-width:1;stroke-linecap:butt;stroke-linejoin:round;stroke-miterlimit:10;stroke-dasharray:none;stroke-opacity:1"
       transform="matrix(1.3333333,0,0,-1.3333333,0,384)"
       clip-path="url(#clipPath155)" />
    <path
       id="path156"
       d="m 689.62909,234.25454 c 1.06081,0 2.07832,0.42147 2.82843,1.17158 0.75011,0.75011 1.17157,1.76761 1.17157,2.82842 0,1.06082 -0.42146,2.07832 -1.17157,2.82843 -0.75011,0.75011 -1.76762,1.17157 -2.82843,1.17157 -1.06081,0 -2.07832,-0.42146 -2.82843,-1.17157 -0.7501,-0.75011 -1.17157,-1.76761 -1.17157,-2.82843 0,-1.06081 0.42147,-2.07831 1.17157,-2.82842 0.75011,-0.75011 1.76762,-1.17158 2.82843,-1.17158 z"
       style="fill:#000000;fill-opacity:1;fill-rule:nonzero;stroke:#000000;stroke-width:1;stroke-linecap:butt;stroke-linejoin:round;stroke-miterlimit:10;stroke-dasharray:none;stroke-opacity:1"
       transform="matrix(1.3333333,0,0,-1.3333333,0,384)"
       clip-path="url(#clipPath157)" />
    <path
       id="path158"
       d="m 752.46545,234.25454 c 1.06082,0 2.07832,0.42147 2.82843,1.17158 0.75011,0.75011 1.17157,1.76761 1.17157,2.82842 0,1.06082 -0.42146,2.07832 -1.17157,2.82843 -0.75011,0.75011 -1.76761,1.17157 -2.82843,1.17157 -1.06081,0 -2.07832,-0.42146 -2.82842,-1.17157 -0.75011,-0.75011 -1.17158,-1.76761 -1.17158,-2.82843 0,-1.06081 0.42147,-2.07831 1.17158,-2.82842 0.7501,-0.75011 1.76761,-1.17158 2.82842,-1.17158 z"
       style="fill:#000000;fill-opacity:1;fill-rule:nonzero;stroke:#000000;stroke-width:1;stroke-linecap:butt;stroke-linejoin:round;stroke-miterlimit:10;stroke-dasharray:none;stroke-opacity:1"
       transform="matrix(1.3333333,0,0,-1.3333333,0,384)"
       clip-path="url(#clipPath159)" />
    <path
       id="path160"
       d="m 815.30182,234.25454 c 1.06081,0 2.07832,0.42147 2.82842,1.17158 0.75011,0.75011 1.17158,1.76761 1.17158,2.82842 0,1.06082 -0.42147,2.07832 -1.17158,2.82843 -0.7501,0.75011 -1.76761,1.17157 -2.82842,1.17157 -1.06081,0 -2.07832,-0.42146 -2.82843,-1.17157 -0.75011,-0.75011 -1.17157,-1.76761 -1.17157,-2.82843 0,-1.06081 0.42146,-2.07831 1.17157,-2.82842 0.75011,-0.75011 1.76762,-1.17158 2.82843,-1.17158 z"
       style="fill:#000000;fill-opacity:1;fill-rule:nonzero;stroke:#000000;stroke-width:1;stroke-linecap:butt;stroke-linejoin:round;stroke-miterlimit:10;stroke-dasharray:none;stroke-opacity:1"
       transform="matrix(1.3333333,0,0,-1.3333333,0,384)"
       clip-path="url(#clipPath161)" />
  </g>
</svg>
