<svg xmlns="http://www.w3.org/2000/svg" viewBox="0 0 760 575" role="img" aria-labelledby="title desc">
  <title id="title">Graph diagram for a free-probability talk</title>
  <desc id="desc">A stylized graph with highlighted regions, red nodes, and connecting lines in the spirit of the provided reference image.</desc>
  <rect width="760" height="575" fill="#fff"/>
  <g fill="#f0cde9" opacity="0.7">
    <rect x="10" y="10" width="88" height="82"/>
    <rect x="661" y="10" width="88" height="82"/>
    <rect x="655" y="483" width="88" height="82"/>
    <rect x="10" y="483" width="88" height="82"/>
    <rect x="116" y="103" width="72" height="72" rx="12"/>
    <rect x="330" y="103" width="72" height="72" rx="12"/>
    <rect x="550" y="103" width="72" height="72" rx="12"/>
    <rect x="116" y="330" width="72" height="72" rx="12"/>
    <rect x="330" y="330" width="72" height="72" rx="12"/>
    <rect x="550" y="330" width="72" height="72" rx="12"/>
  </g>
  <g fill="none" stroke="#0f2a74" stroke-width="2.5" stroke-linecap="round" stroke-linejoin="round" opacity="0.18">
    <path d="M54 134L380 49"/>
    <path d="M54 134L160 140"/>
    <path d="M54 134L160 366"/>
    <path d="M54 134L380 362"/>
    <path d="M160 140L380 49"/>
    <path d="M160 140L600 140"/>
    <path d="M160 140L600 366"/>
    <path d="M380 49L600 140"/>
    <path d="M380 49L600 366"/>
    <path d="M160 366L380 362"/>
    <path d="M160 366L600 366"/>
    <path d="M160 366L380 549"/>
    <path d="M380 362L600 366"/>
    <path d="M380 362L380 549"/>
  </g>
  <g fill="none" stroke="#c73d17" stroke-width="3.25" stroke-linecap="round" stroke-linejoin="round">
    <path d="M54 134L160 140L380 49L600 140L706 134"/>
    <path d="M54 134L160 366L380 362L600 366L706 134"/>
    <path d="M160 140L160 366"/>
    <path d="M380 49L380 362"/>
    <path d="M600 140L600 366"/>
    <path d="M160 366L600 140"/>
    <path d="M160 140L600 366"/>
    <path d="M160 366L380 549"/>
    <path d="M380 362L600 366"/>
    <path d="M600 366L380 549"/>
  </g>
  <g fill="#a23b0f" stroke="#a23b0f" stroke-width="1">
    <circle cx="54" cy="134" r="4"/>
    <circle cx="160" cy="140" r="4"/>
    <circle cx="380" cy="49" r="4"/>
    <circle cx="600" cy="140" r="4"/>
    <circle cx="706" cy="134" r="4"/>
    <circle cx="160" cy="366" r="4"/>
    <circle cx="380" cy="362" r="4"/>
    <circle cx="600" cy="366" r="4"/>
    <circle cx="380" cy="549" r="4"/>
    <circle cx="160" cy="366" r="4"/>
  </g>
  <g fill="#c12d12">
    <circle cx="54" cy="134" r="13"/>
    <circle cx="160" cy="140" r="13"/>
    <circle cx="380" cy="49" r="13"/>
    <circle cx="600" cy="140" r="13"/>
    <circle cx="706" cy="134" r="13"/>
    <circle cx="160" cy="366" r="13"/>
    <circle cx="380" cy="362" r="13"/>
    <circle cx="600" cy="366" r="13"/>
    <circle cx="380" cy="549" r="13"/>
  </g>
  <g font-family="Georgia, 'Times New Roman', serif" font-style="italic" fill="#c73d17">
    <text x="557" y="528" font-size="38">π = (12)(3)(4)</text>
  </g>
</svg>
